<svg width="88" height="90" viewBox="0 0 88 90" fill="none" xmlns="http://www.w3.org/2000/svg">
<g filter="url(#filter0_ddd_1_67)">
<rect x="20" y="1.52002" width="48" height="48" rx="10" fill="url(#paint0_linear_1_67)" shape-rendering="crispEdges"/>
<path d="M50.6408 21.5696H44.7068L46.5896 16.544C46.646 16.3928 46.6748 16.2332 46.6748 16.0724C46.6748 15.332 46.0652 14.7212 45.3248 14.72H38.5148C37.8332 14.72 37.2584 15.2276 37.1756 15.9044L36.02 25.28L36.0188 25.2836V25.2896L36.0176 25.292V25.3004L36.0164 25.3028V25.3124L36.0152 25.3148V25.3256L36.014 25.334V25.3388L36.0128 25.3424V25.3496L36.0116 25.3712V25.3784L36.0104 25.388V25.394L36.0092 25.4168V25.4744L36.0104 25.4768V25.5104L36.0116 25.5128V25.526L36.0128 25.5464L36.014 25.5488V25.5584C36.026 25.6988 36.0596 25.8368 36.116 25.9688L36.1172 25.9748L36.1268 25.9964L36.1292 25.9988L36.1304 26.0024V26.0048L36.1316 26.0072L36.134 26.0096L36.1376 26.018L36.1412 26.0276L36.1472 26.0396L36.1796 26.1008L36.182 26.1056L36.1856 26.1116L36.1964 26.1308L36.1976 26.132L36.2 26.1356L36.2024 26.1392L36.2036 26.1416V26.1428L36.2048 26.144L36.2084 26.15L36.2096 26.1512L36.2108 26.1548L36.2144 26.1584V26.1596L36.2156 26.1608L36.218 26.1644V26.1668L36.2192 26.168L36.2216 26.1716L36.2228 26.174L36.224 26.1752C36.2972 26.2892 36.3872 26.3912 36.4892 26.4764L36.494 26.48L36.5024 26.4884L36.5108 26.4956L36.5156 26.498L36.5168 26.5004H36.518L36.5204 26.5016L36.5264 26.5076L36.5288 26.5088L36.5312 26.5112L36.5384 26.516C36.5407 26.5186 36.5435 26.5207 36.5468 26.522V26.5232L36.5492 26.5244L36.5528 26.5268L36.5552 26.5292L36.56 26.5328L36.566 26.5364L36.5828 26.5496L36.5888 26.5532L36.5936 26.5568L36.6212 26.5748L36.6308 26.582L36.65 26.5928L36.656 26.5964L36.6692 26.6048L36.6884 26.6156L36.6896 26.6168L36.698 26.6216L36.6992 26.6228H36.7004L36.7016 26.624L36.7088 26.6276C36.7116 26.6299 36.7149 26.6315 36.7184 26.6324L36.7208 26.6348L36.7256 26.636L36.7268 26.6372L36.7316 26.6396L36.7328 26.6408L36.7364 26.642L36.746 26.6468L36.7496 26.6492L36.7592 26.654L36.7628 26.6564H36.7652L36.7664 26.6576L36.77 26.6588L36.7724 26.66L36.7736 26.6612C36.9236 26.7332 37.088 26.7788 37.2584 26.7908H37.2608L37.2656 26.792H37.2776L37.2884 26.7932H37.3088L37.3124 26.7944H43.3076L41.3912 34.6496C41.3418 34.8484 41.3382 35.0558 41.3806 35.2562C41.423 35.4567 41.5103 35.6448 41.636 35.8066C41.7618 35.9684 41.9225 36.0995 42.1063 36.1901C42.29 36.2807 42.4919 36.3284 42.6968 36.3296C43.154 36.3296 43.5812 36.0968 43.8296 35.7128L51.7676 23.6624C51.9128 23.4416 51.9896 23.1848 51.9896 22.9208C51.9896 22.1804 51.3812 21.5708 50.6408 21.5696Z" fill="#F97316" fill-opacity="0.5"/>
<path fill-rule="evenodd" clip-rule="evenodd" d="M36.2216 26.1716L36.2192 26.168L36.218 26.1644L36.2108 26.1548L36.2096 26.1512L36.2024 26.1392L36.2 26.1356L36.1976 26.1332L36.134 26.0096L36.1304 26.0048V26.0024L36.1292 25.9988L36.1268 25.9964L36.1172 25.9748L36.116 25.9688C36.0603 25.8383 36.0259 25.6997 36.014 25.5584V25.5488L36.0128 25.5464L36.0116 25.5128L36.0104 25.5104V25.4768L36.0092 25.4744L36.0128 25.3424L36.014 25.3388V25.334L36.0152 25.3256V25.3148L36.0164 25.3124V25.3028L36.0176 25.3004V25.292L36.0188 25.2896V25.2836L36.02 25.28L37.1756 15.9044C37.2157 15.5775 37.3741 15.2766 37.6208 15.0584C37.8675 14.8402 38.1855 14.7199 38.5148 14.72H45.3248C46.0652 14.7212 46.6748 15.332 46.6748 16.0724C46.6748 16.2332 46.646 16.3928 46.5896 16.544L44.7068 21.5696H50.6408L50.7092 21.572C50.9552 21.5912 51.188 21.6632 51.3932 21.8024C51.9956 22.2128 52.1684 23.0528 51.7676 23.6624L43.8296 35.7128C43.7285 35.8667 43.5972 35.9984 43.4435 36.0998C43.2899 36.2013 43.1172 36.2705 42.936 36.303C42.7548 36.3356 42.5688 36.3309 42.3895 36.2892C42.2101 36.2476 42.0411 36.1699 41.8928 36.0608C41.6104 35.8483 41.4212 35.5348 41.3648 35.186C41.3372 35.0072 41.348 34.826 41.3912 34.6496L43.3076 26.7944H37.9124C37.9126 26.6679 37.8727 26.5447 37.7986 26.4423C37.7244 26.3399 37.6198 26.2636 37.4996 26.2244H37.4984L37.4792 26.2184L37.4996 26.2244C37.5464 26.2412 37.5572 26.3252 37.5476 26.4416C37.5551 26.5608 37.5405 26.6805 37.5044 26.7944L36.2216 26.1716ZM37.3292 26.1944L37.298 26.192C37.2089 26.1851 37.1219 26.1619 37.0412 26.1236L37.0388 26.1224L36.9344 26.0636L36.8672 26.0108C36.8137 25.9645 36.7673 25.9107 36.7292 25.8512L36.686 25.7756L36.668 25.7336C36.6395 25.6663 36.6213 25.5951 36.614 25.5224L36.6092 25.4012L36.6104 25.388V25.3868L36.6152 25.3532L37.7708 15.9776C37.7933 15.7961 37.8814 15.6291 38.0184 15.508C38.1554 15.3869 38.3319 15.32 38.5148 15.32H45.3236C45.4446 15.3211 45.5636 15.3512 45.6705 15.4079C45.7774 15.4645 45.8692 15.546 45.9381 15.6455C46.007 15.7449 46.051 15.8595 46.0664 15.9795C46.0819 16.0995 46.0683 16.2215 46.0268 16.3352L44.1452 21.3596C44.1113 21.4503 44.0999 21.5479 44.1119 21.644C44.1239 21.7401 44.159 21.8318 44.2142 21.9114C44.2693 21.991 44.343 22.0561 44.4288 22.101C44.5145 22.146 44.6099 22.1695 44.7068 22.1696H50.6396C50.7744 22.1714 50.9063 22.2092 51.0216 22.2791C51.1369 22.349 51.2314 22.4485 51.2953 22.5672C51.3592 22.686 51.3902 22.8197 51.385 22.9544C51.3799 23.0891 51.3388 23.2201 51.266 23.3336L43.3256 35.3876C43.2293 35.5362 43.0833 35.6459 42.9137 35.697C42.7441 35.7481 42.5619 35.7373 42.3995 35.6666C42.2371 35.5958 42.1051 35.4697 42.027 35.3107C41.949 35.1517 41.9299 34.9701 41.9732 34.7984L43.8908 26.9372C43.912 26.8488 43.9129 26.7569 43.8935 26.6681C43.8741 26.5794 43.8349 26.4962 43.7788 26.4248C43.7227 26.3533 43.6512 26.2955 43.5696 26.2556C43.488 26.2157 43.3984 26.1948 43.3076 26.1944H37.3292ZM37.3436 26.1956L37.3484 26.1968H37.3676L37.3364 26.1944L37.3436 26.1956ZM37.1252 26.1752C37.0997 26.1567 37.0728 26.1402 37.0448 26.126L37.1252 26.1752ZM36.614 25.5512C36.6142 25.5792 36.6126 25.6073 36.6092 25.6352L36.5936 25.6184L36.5972 25.6016C36.6058 25.5859 36.6115 25.5689 36.614 25.5512Z" fill="#F97316"/>
</g>
<defs>
<filter id="filter0_ddd_1_67" x="0" y="0.52002" width="88" height="89" filterUnits="userSpaceOnUse" color-interpolation-filters="sRGB">
<feFlood flood-opacity="0" result="BackgroundImageFix"/>
<feColorMatrix in="SourceAlpha" type="matrix" values="0 0 0 0 0 0 0 0 0 0 0 0 0 0 0 0 0 0 127 0" result="hardAlpha"/>
<feMorphology radius="6" operator="erode" in="SourceAlpha" result="effect1_dropShadow_1_67"/>
<feOffset dy="8"/>
<feGaussianBlur stdDeviation="5"/>
<feComposite in2="hardAlpha" operator="out"/>
<feColorMatrix type="matrix" values="0 0 0 0 0.976471 0 0 0 0 0.45098 0 0 0 0 0.0862745 0 0 0 0.3 0"/>
<feBlend mode="normal" in2="BackgroundImageFix" result="effect1_dropShadow_1_67"/>
<feColorMatrix in="SourceAlpha" type="matrix" values="0 0 0 0 0 0 0 0 0 0 0 0 0 0 0 0 0 0 127 0" result="hardAlpha"/>
<feMorphology radius="5" operator="erode" in="SourceAlpha" result="effect2_dropShadow_1_67"/>
<feOffset dy="20"/>
<feGaussianBlur stdDeviation="12.5"/>
<feComposite in2="hardAlpha" operator="out"/>
<feColorMatrix type="matrix" values="0 0 0 0 0.976471 0 0 0 0 0.45098 0 0 0 0 0.0862745 0 0 0 0.3 0"/>
<feBlend mode="normal" in2="effect1_dropShadow_1_67" result="effect2_dropShadow_1_67"/>
<feColorMatrix in="SourceAlpha" type="matrix" values="0 0 0 0 0 0 0 0 0 0 0 0 0 0 0 0 0 0 127 0" result="hardAlpha"/>
<feMorphology radius="1" operator="dilate" in="SourceAlpha" result="effect3_dropShadow_1_67"/>
<feOffset/>
<feComposite in2="hardAlpha" operator="out"/>
<feColorMatrix type="matrix" values="0 0 0 0 0.976471 0 0 0 0 0.45098 0 0 0 0 0.0862745 0 0 0 0.35 0"/>
<feBlend mode="normal" in2="effect2_dropShadow_1_67" result="effect3_dropShadow_1_67"/>
<feBlend mode="normal" in="SourceGraphic" in2="effect3_dropShadow_1_67" result="shape"/>
</filter>
<linearGradient id="paint0_linear_1_67" x1="20" y1="1.52002" x2="68" y2="49.52" gradientUnits="userSpaceOnUse">
<stop stop-color="#FED7AA" stop-opacity="0.5"/>
<stop offset="1" stop-color="#F97316" stop-opacity="0.4"/>
</linearGradient>
</defs>
</svg>
