<svg width="111" height="33" viewBox="0 0 111 33" fill="none" xmlns="http://www.w3.org/2000/svg">
<path fill-rule="evenodd" clip-rule="evenodd" d="M24.6056 4.34326H28.6573C32.2611 4.34326 35.187 7.26912 35.187 10.873V25.12C35.187 28.7238 32.2611 31.6497 28.6573 31.6497H28.338C26.4831 31.3595 25.6787 30.8033 25.0573 30.3331L19.9059 26.0975C19.7768 25.9932 19.6158 25.9362 19.4499 25.9362C19.2839 25.9362 19.1229 25.9932 18.9939 26.0975L17.3203 27.4737L12.6069 23.5981C12.478 23.4936 12.317 23.4365 12.1511 23.4365C11.9851 23.4365 11.8242 23.4936 11.6953 23.5981L5.14714 29.3585C3.82929 30.4304 2.95757 30.2324 2.39229 30.1703C0.932143 28.972 0 27.154 0 25.12V10.873C0 7.26912 2.92586 4.34326 6.53014 4.34326H10.5729L10.5656 4.35955L10.4293 4.75683L10.3869 4.89312L10.2034 5.70698L10.1781 5.84969L10.0976 6.66483L10.0869 6.88855L10.0851 6.96698L10.0929 7.34069L10.1113 7.55969L10.1567 7.90255L10.2146 8.21112L10.2831 8.49526L10.3723 8.80298L10.6037 9.4544L10.68 9.64983L11.0829 10.501L11.2251 10.7624L11.691 11.5621L11.8693 11.8505L12.5194 12.808L12.6133 12.9348L13.4593 14.0358L13.7327 14.3748L14.6987 15.5041L14.8971 15.7214L15.6934 16.5781L16.0089 16.9047L16.53 17.4224L16.4254 17.5098L16.3603 17.5685C16.1833 17.7335 16.0153 17.9088 15.858 18.0931C15.7824 18.1823 15.7104 18.2743 15.642 18.3691C15.5377 18.5139 15.4445 18.6664 15.363 18.8251C15.3214 18.9076 15.284 18.9921 15.2511 19.0784C15.1663 19.2989 15.1153 19.531 15.0999 19.7667L15.0969 19.9703C15.1043 20.2573 15.1627 20.5407 15.2696 20.8073C15.3778 21.0775 15.5357 21.325 15.735 21.5371C15.8799 21.6914 16.0449 21.826 16.2257 21.9365C16.3796 22.0308 16.5437 22.1084 16.7143 22.1675C17.0851 22.2932 17.4785 22.3379 17.868 22.2987H17.8701C18.2025 22.2665 18.5255 22.1706 18.8216 22.0163C18.9493 21.9485 19.071 21.8701 19.185 21.781C19.5114 21.5269 19.7644 21.1905 19.9179 20.8064C20.0379 20.5068 20.0966 20.1867 20.0914 19.8644L20.082 19.696C20.0602 19.4735 20.0072 19.2552 19.9243 19.0475C19.8884 18.9571 19.8476 18.8687 19.8021 18.7827C19.7178 18.6242 19.6218 18.4723 19.515 18.328C19.4661 18.262 19.4155 18.1972 19.3633 18.1338C19.1893 17.9262 19.0021 17.7301 18.8027 17.5467L18.6617 17.4267L18.9004 17.191L19.9264 16.1195L20.2813 15.73L20.8329 15.1094L21.1916 14.6898L21.7033 14.0667L22.0496 13.6313L22.5583 12.9511L22.815 12.5993L23.1793 12.0545L23.4827 11.5904L24.0544 10.5948L24.3814 9.94169L24.3909 9.92155L24.6411 9.31555C24.6444 9.30771 24.6473 9.2997 24.6497 9.29155L24.9193 8.45069L24.9476 8.32812L25.0646 7.65869L25.0873 7.4774L25.0941 7.3664L25.1023 6.94726L25.1001 6.86926L25.0787 6.49383L25.0521 6.2024L24.9193 5.36198C24.9171 5.35083 24.915 5.33969 24.9116 5.32855L24.741 4.70712L24.6823 4.5344L24.6056 4.34326ZM26.5316 22.1097C26.123 22.1155 25.7329 22.2803 25.4439 22.5692C25.155 22.8581 24.9902 23.2483 24.9844 23.6568C24.9904 24.0653 25.1553 24.4553 25.4442 24.7441C25.7331 25.0329 26.1231 25.1977 26.5316 25.2035C26.94 25.1976 27.33 25.0327 27.619 24.744C27.9079 24.4552 28.0729 24.0653 28.0791 23.6568C28.0733 23.2483 27.9083 22.8581 27.6194 22.5692C27.3304 22.2803 26.9401 22.1154 26.5316 22.1097Z" fill="url(#paint0_radial_1_330)"/>
<path fill-rule="evenodd" clip-rule="evenodd" d="M15.0009 31.3195L19.1992 27.7765C19.2761 27.7121 19.3732 27.6768 19.4735 27.6766C19.5738 27.6765 19.671 27.7115 19.7482 27.7756L24.0073 31.3195C24.2662 31.5304 24.5902 31.6456 24.924 31.6461H14.0897C14.4223 31.6461 14.7442 31.5308 15.0009 31.3195ZM17.6143 18.6719L17.6554 18.6839C17.6687 18.6904 17.6799 18.6994 17.6919 18.7075L17.7262 18.7379C17.811 18.8159 17.8933 18.8978 17.9726 18.9818C18.0283 19.0414 18.0827 19.1026 18.135 19.1661C18.2014 19.2462 18.2636 19.3302 18.3202 19.4176C18.3446 19.4562 18.3673 19.4952 18.3887 19.5359C18.4072 19.5711 18.4239 19.6075 18.4384 19.6444C18.4642 19.7086 18.4834 19.7764 18.4894 19.8454L18.4882 19.9748C18.4795 20.0916 18.4433 20.2047 18.3824 20.3047C18.3215 20.4048 18.2378 20.489 18.138 20.5504C18.0085 20.6287 17.8628 20.6766 17.712 20.6905L17.5522 20.6952L17.4172 20.6832C17.354 20.674 17.2919 20.6589 17.2316 20.6382C17.1702 20.6173 17.1113 20.5897 17.0559 20.5559L16.9504 20.4788C16.8262 20.3727 16.7416 20.2277 16.7104 20.0674C16.7052 20.0404 16.7011 20.0132 16.698 19.9859L16.6942 19.8625C16.6963 19.8291 16.7014 19.7961 16.7087 19.7631C16.7272 19.6911 16.7537 19.6212 16.7871 19.5548C16.8304 19.4716 16.8797 19.3915 16.9346 19.3152C17.0259 19.1918 17.1249 19.0744 17.2307 18.9634C17.2989 18.8914 17.3687 18.8215 17.4416 18.7542L17.4934 18.7075C17.5294 18.6839 17.5299 18.6839 17.571 18.6719H17.6143ZM17.349 1.46564L17.3657 1.46436V15.8922L17.3297 15.8258C16.8548 14.9472 16.4126 14.0513 16.0042 13.1399C15.6728 12.4022 15.3727 11.6508 15.1046 10.8878C14.8905 10.28 14.7096 9.66111 14.5624 9.03378C14.4489 8.53536 14.3614 8.02964 14.3254 7.51878C14.3114 7.3008 14.3073 7.08229 14.313 6.86393C14.3164 6.67364 14.3242 6.48378 14.3362 6.29393C14.355 5.99564 14.3854 5.69778 14.4292 5.40207C14.4639 5.16936 14.5067 4.9375 14.5594 4.70821C14.6014 4.52607 14.6503 4.34521 14.706 4.16736C14.7866 3.91021 14.883 3.65907 14.9953 3.41393C15.0364 3.32564 15.0806 3.23778 15.1269 3.15164C15.4054 2.63564 15.7834 2.16036 16.2784 1.84278C16.6001 1.63341 16.9672 1.50409 17.349 1.46564ZM19.2197 1.50207L20.1904 1.77893C20.64 1.94478 21.0729 2.16078 21.4706 2.43078C22.0127 2.79668 22.4799 3.26274 22.8472 3.80393C23.0623 4.1245 23.2406 4.47036 23.3799 4.83164C23.5817 5.36607 23.7069 5.92621 23.751 6.49536C23.7639 6.6445 23.7712 6.79407 23.7742 6.94364C23.7776 7.0825 23.7767 7.22178 23.7656 7.36064C23.7382 7.67136 23.6799 7.97864 23.5912 8.27778C23.52 8.52258 23.436 8.76349 23.3396 8.9995C23.2196 9.29307 23.0863 9.58107 22.9402 9.86221C22.617 10.4866 22.2446 11.0845 21.846 11.6626C21.3519 12.3732 20.8252 13.0605 20.2676 13.7224C19.6621 14.4444 19.0307 15.1443 18.3746 15.8206C18.8198 14.9857 19.2353 14.1353 19.6204 13.2711C19.8347 12.7894 20.0366 12.3025 20.2264 11.8109C20.4352 11.2709 20.6237 10.7236 20.7909 10.1695C20.9152 9.75421 21.0249 9.33464 21.1153 8.91036C21.1929 8.5465 21.2537 8.17878 21.2914 7.80893C21.3232 7.50036 21.3347 7.19007 21.327 6.88064C21.3241 6.69123 21.3171 6.5019 21.306 6.31278C21.2606 5.55207 21.1449 4.7935 20.9229 4.06364C20.8388 3.78692 20.7366 3.51605 20.6169 3.25278C20.3327 2.63393 19.9363 2.05578 19.3997 1.63364L19.2197 1.50207Z" fill="white"/>
<path fill-rule="evenodd" clip-rule="evenodd" d="M76.8056 27.5558L72.198 17.6922C71.8131 16.8706 71.5839 16.5702 71.199 16.2218L70.8244 15.8841C70.5257 15.5943 70.3294 15.3261 70.3294 15.0076C70.3294 14.5516 70.6907 14.1676 71.3486 14.1676H75.3489C75.9767 14.1676 76.368 14.4942 76.368 14.9819C76.368 15.2541 76.2429 15.4581 76.0847 15.6582C75.897 15.8961 75.6527 16.1279 75.6527 16.5505C75.6527 16.8153 75.7299 17.0793 75.8786 17.4166L78.6283 23.8559L81.0947 17.5786C81.2464 17.1612 81.3501 16.7935 81.3501 16.4991C81.3501 16.0409 81.1011 15.8541 80.9091 15.6492C80.742 15.4713 80.6083 15.2832 80.6083 14.9819C80.6083 14.4895 81.009 14.1676 81.5481 14.1676H84.0116C84.7024 14.1676 85.0307 14.5251 85.0307 14.9819C85.0307 15.2742 84.8623 15.5451 84.531 15.8373L84.1826 16.1236C83.6974 16.5201 83.4729 17.0935 83.2179 17.6866L79.4824 26.6858C79.041 27.7379 78.384 29.1985 77.3803 30.3968C76.3607 31.6139 74.9859 32.5602 73.1237 32.5602C71.5646 32.5602 70.6209 31.8158 70.6209 30.7431C70.6209 29.7603 71.3477 28.9773 72.3026 28.9773C72.8254 28.9773 73.0976 29.2242 73.3736 29.4783C73.6016 29.6879 73.833 29.9031 74.2894 29.9031C74.7129 29.9031 75.1071 29.7239 75.4646 29.4346C76.0106 28.9932 76.4679 28.2981 76.8056 27.5558ZM103.881 27.5206C105.954 27.5206 107.654 26.8101 108.979 25.3919C110.304 23.9759 110.966 22.2715 110.966 20.2786C110.966 18.3333 110.337 16.7352 109.082 15.4825C107.828 14.2306 106.201 13.6019 104.198 13.6019C102.09 13.6019 100.365 14.2863 99.0223 15.6505C97.6787 17.0159 97.0067 18.6698 97.0067 20.6125C97.0067 22.5381 97.6479 24.1701 98.928 25.5089C100.209 26.8486 101.859 27.5206 103.881 27.5206ZM86.343 27.3663C87.5421 27.3663 88.395 26.5589 88.395 25.3949C88.395 24.2583 87.5143 23.4492 86.343 23.4492C85.116 23.4492 84.2379 24.2596 84.2379 25.3949C84.2379 26.5576 85.1164 27.3663 86.343 27.3663ZM90.6133 25.5213L90.9051 25.2128C91.2523 24.8755 91.3641 24.5348 91.3641 23.5953V18.0415C91.3641 17.2293 91.2536 16.8668 90.909 16.5565L90.5657 16.2488C90.2293 15.9518 90.1187 15.7671 90.1187 15.4705C90.1187 15.0488 90.4457 14.7029 90.9716 14.5829L93.303 14.0172C93.5259 13.9632 93.7774 13.9105 93.9724 13.9105C94.2407 13.9105 94.4601 13.9988 94.614 14.1518C94.7683 14.3052 94.8591 14.5259 94.8591 14.8019V23.5953C94.8591 24.4821 94.9667 24.8943 95.337 25.2059C95.343 25.2111 95.3486 25.2166 95.3537 25.2226L95.6143 25.5261C95.9417 25.8445 96.0776 26.0558 96.0776 26.3463C96.0776 26.8645 95.6867 27.1606 95.0589 27.1606H91.1113C90.513 27.1606 90.1187 26.8662 90.1187 26.3463C90.1187 26.0545 90.2546 25.8415 90.6133 25.5213ZM64.2274 25.5218L64.5193 25.2128C64.8669 24.8755 64.9783 24.5348 64.9783 23.5953V11.9995C64.9783 11.2131 64.8951 10.8269 64.527 10.5171L64.1747 10.1759C63.8709 9.88063 63.7599 9.69763 63.7599 9.40234C63.7599 8.9802 64.0886 8.63563 64.5857 8.5152L66.8906 7.94949C67.1139 7.89549 67.365 7.84277 67.5604 7.84277C67.8266 7.84277 68.052 7.92292 68.2127 8.07506C68.3739 8.22763 68.4733 8.45435 68.4733 8.75992V23.5953C68.4733 24.4842 68.5839 24.8729 68.9554 25.2093L69.2529 25.5239C69.5824 25.8445 69.6921 26.0545 69.6921 26.3463C69.6921 26.5615 69.6266 26.7351 69.5096 26.8675C69.3446 27.0539 69.0681 27.1606 68.6996 27.1606H64.7524C64.3839 27.1606 64.1074 27.0539 63.942 26.8675C63.8254 26.7351 63.7599 26.5615 63.7599 26.3463C63.7599 26.0541 63.8683 25.8423 64.2274 25.5218ZM53.4793 19.5501V23.5439C53.4793 24.1456 53.5984 24.7015 54.0943 25.1588L54.4149 25.4699C54.774 25.8183 54.8833 26.0271 54.8833 26.3463C54.8833 26.8341 54.492 27.1606 53.8641 27.1606H49.4134C48.7856 27.1606 48.3947 26.8341 48.3947 26.3463C48.3947 25.9675 48.5057 25.7879 48.8649 25.4682L49.1841 25.1579C49.5561 24.8211 49.7987 24.3621 49.7987 23.5439V12.8738C49.7987 12.2236 49.6547 11.6918 49.1837 11.2585L48.8627 10.9473C48.5327 10.6272 48.3947 10.4168 48.3947 10.0966C48.3947 9.57977 48.7869 9.25663 49.4134 9.25663H61.335C61.7906 9.25663 62.1909 9.3582 62.4467 9.60892C62.6246 9.78334 62.7381 10.0293 62.751 10.3709L62.9366 13.1228C62.955 13.4669 62.8534 13.7536 62.655 13.9306C62.5183 14.0523 62.3344 14.1252 62.103 14.1252C61.8111 14.1252 61.5874 14.0151 61.3877 13.8248C61.2081 13.6538 61.0483 13.4138 60.8679 13.1313C60.4324 12.4353 60.2297 12.1851 59.7656 11.8598C59.1197 11.3832 58.1357 11.2195 56.2749 11.2195C55.2013 11.2195 54.5237 11.2662 54.0969 11.3763C53.8209 11.4475 53.6614 11.5401 53.5761 11.6759C53.4887 11.8148 53.4793 11.9905 53.4793 12.2052V17.6129H56.2749C56.9439 17.6129 57.4144 17.4921 57.9596 16.7468L57.9626 16.7425C58.1811 16.4643 58.3393 16.2595 58.4897 16.1236C58.665 15.9651 58.8334 15.8901 59.0567 15.8901C59.2715 15.892 59.4768 15.9787 59.628 16.1313C59.7791 16.2839 59.8638 16.49 59.8637 16.7048V20.4329C59.8637 20.9322 59.4746 21.2729 59.0567 21.2729C58.8489 21.2729 58.68 21.1988 58.5043 21.0436C58.353 20.9108 58.1944 20.7115 57.9887 20.4453C57.3921 19.6731 56.9709 19.5501 56.2749 19.5501H53.4793ZM100.714 19.4558C100.714 18.1182 101.005 17.1569 101.609 16.5788C102.206 16.0079 102.847 15.7191 103.536 15.7191C104.484 15.7191 105.338 16.2496 106.109 17.2928C106.896 18.3595 107.286 19.8012 107.286 21.6153C107.286 22.9542 106.993 23.9245 106.389 24.5193C105.792 25.1061 105.152 25.4035 104.463 25.4035C103.515 25.4035 102.661 24.8686 101.891 23.8173C101.103 22.7416 100.714 21.2871 100.714 19.4558ZM92.913 12.2223C94.1147 12.2223 94.965 11.5461 94.965 10.3795C94.965 9.24035 94.1156 8.56235 92.913 8.56235C91.6826 8.56235 90.834 9.24077 90.834 10.3795C90.834 11.5178 91.683 12.2223 92.913 12.2223Z" fill="white"/>
<defs>
<radialGradient id="paint0_radial_1_330" cx="0" cy="0" r="1" gradientUnits="userSpaceOnUse" gradientTransform="translate(18.6827 17.8775) scale(25.4899)">
<stop stop-color="#BA7BF0"/>
<stop offset="0.45" stop-color="#996BEC"/>
<stop offset="1" stop-color="#5046E4"/>
</radialGradient>
</defs>
</svg>
