<svg width="111" height="36" viewBox="0 0 111 36" fill="none" xmlns="http://www.w3.org/2000/svg">
<path fill-rule="evenodd" clip-rule="evenodd" d="M24.6056 4.34314H28.6573C32.2611 4.34314 35.187 7.269 35.187 10.8729V25.1199C35.187 28.7237 32.2611 31.6496 28.6573 31.6496H28.338C26.4831 31.3594 25.6787 30.8031 25.0573 30.333L19.9059 26.0974C19.7768 25.993 19.6158 25.9361 19.4499 25.9361C19.2839 25.9361 19.1229 25.993 18.9939 26.0974L17.3203 27.4736L12.6069 23.598C12.478 23.4934 12.317 23.4364 12.1511 23.4364C11.9851 23.4364 11.8242 23.4934 11.6953 23.598L5.14714 29.3584C3.82929 30.4303 2.95757 30.2323 2.39229 30.1701C0.932143 28.9719 0 27.1539 0 25.1199V10.8729C0 7.269 2.92586 4.34314 6.53014 4.34314H10.5729L10.5656 4.35943L10.4293 4.75671L10.3869 4.893L10.2034 5.70685L10.1781 5.84957L10.0976 6.66471L10.0869 6.88843L10.0851 6.96685L10.0929 7.34057L10.1113 7.55957L10.1567 7.90243L10.2146 8.211L10.2831 8.49514L10.3723 8.80285L10.6037 9.45428L10.68 9.64971L11.0829 10.5009L11.2251 10.7623L11.691 11.562L11.8693 11.8504L12.5194 12.8079L12.6133 12.9347L13.4593 14.0357L13.7327 14.3747L14.6987 15.504L14.8971 15.7213L15.6934 16.578L16.0089 16.9046L16.53 17.4223L16.4254 17.5097L16.3603 17.5684C16.1833 17.7334 16.0153 17.9087 15.858 18.093C15.7824 18.1821 15.7104 18.2742 15.642 18.369C15.5377 18.5138 15.4445 18.6662 15.363 18.825C15.3214 18.9074 15.284 18.992 15.2511 19.0783C15.1663 19.2988 15.1153 19.5308 15.0999 19.7666L15.0969 19.9701C15.1043 20.2572 15.1627 20.5406 15.2696 20.8071C15.3778 21.0773 15.5357 21.3249 15.735 21.537C15.8799 21.6913 16.0449 21.8259 16.2257 21.9364C16.3796 22.0307 16.5437 22.1083 16.7143 22.1674C17.0851 22.2931 17.4785 22.3378 17.868 22.2986H17.8701C18.2025 22.2663 18.5255 22.1704 18.8216 22.0161C18.9493 21.9484 19.071 21.87 19.185 21.7809C19.5114 21.5268 19.7644 21.1904 19.9179 20.8063C20.0379 20.5067 20.0966 20.1866 20.0914 19.8643L20.082 19.6959C20.0602 19.4734 20.0072 19.2551 19.9243 19.0474C19.8884 18.957 19.8476 18.8686 19.8021 18.7826C19.7178 18.6241 19.6218 18.4721 19.515 18.3279C19.4661 18.2618 19.4155 18.1971 19.3633 18.1337C19.1893 17.9261 19.0021 17.7299 18.8027 17.5466L18.6617 17.4266L18.9004 17.1909L19.9264 16.1194L20.2813 15.7299L20.8329 15.1093L21.1916 14.6897L21.7033 14.0666L22.0496 13.6311L22.5583 12.951L22.815 12.5991L23.1793 12.0544L23.4827 11.5903L24.0544 10.5947L24.3814 9.94157L24.3909 9.92143L24.6411 9.31543C24.6444 9.30759 24.6473 9.29958 24.6497 9.29143L24.9193 8.45057L24.9476 8.328L25.0646 7.65857L25.0873 7.47728L25.0941 7.36628L25.1023 6.94714L25.1001 6.86914L25.0787 6.49371L25.0521 6.20228L24.9193 5.36185C24.9171 5.35071 24.915 5.33957 24.9116 5.32843L24.741 4.707L24.6823 4.53428L24.6056 4.34314ZM26.5316 22.1096C26.123 22.1153 25.7329 22.2802 25.4439 22.5691C25.155 22.858 24.9902 23.2482 24.9844 23.6567C24.9904 24.0651 25.1553 24.4552 25.4442 24.7439C25.7331 25.0327 26.1231 25.1976 26.5316 25.2034C26.94 25.1975 27.3301 25.0326 27.619 24.7439C27.9079 24.4551 28.0729 24.0651 28.0791 23.6567C28.0733 23.2481 27.9083 22.858 27.6194 22.5691C27.3304 22.2802 26.9401 22.1153 26.5316 22.1096Z" fill="url(#paint0_radial_1_415)"/>
<path fill-rule="evenodd" clip-rule="evenodd" d="M15.2738 31.0903L15.0008 31.3196C14.7485 31.5278 14.4323 31.6431 14.1051 31.6461H6.52927C5.02032 31.648 3.55767 31.1252 2.39185 30.1671C2.95713 30.2293 3.82885 30.4273 5.1467 29.3554L11.694 23.5954C11.823 23.4912 11.9839 23.4344 12.1498 23.4344C12.3156 23.4344 12.4765 23.4912 12.6056 23.5954L17.3186 27.4706L18.9917 26.0949C19.257 25.8806 19.6388 25.8806 19.9037 26.0949L25.0547 30.33C25.6761 30.8001 26.4806 31.356 28.335 31.6461H24.9086C24.6058 31.6426 24.3117 31.5446 24.0673 31.3659L24.0073 31.3196L23.7531 31.1083C23.7327 31.0836 23.71 31.0608 23.6854 31.0401C23.3974 30.7989 19.7481 27.7757 19.7481 27.7757C19.671 27.7116 19.5738 27.6765 19.4735 27.6767C19.3732 27.6769 19.2761 27.7122 19.1991 27.7766C19.1991 27.7766 19.2081 27.7877 15.3257 31.0401C15.3072 31.0555 15.2898 31.0723 15.2738 31.0903ZM26.529 22.1074C26.1211 22.1149 25.7319 22.2802 25.4434 22.5687C25.1549 22.8571 24.9894 23.2462 24.9818 23.6541C24.9896 24.062 25.1552 24.451 25.4436 24.7394C25.7321 25.0278 26.1211 25.1932 26.529 25.2009C26.9368 25.1932 27.3258 25.0278 27.6143 24.7394C27.9028 24.451 28.0683 24.062 28.0761 23.6541C28.0685 23.2462 27.9031 22.8571 27.6146 22.5687C27.326 22.2802 26.9369 22.1149 26.529 22.1074ZM16.5283 17.4206L16.0071 16.9029L15.6917 16.5763L14.8954 15.7196L14.697 15.5023L13.7314 14.3734L13.458 14.0344L12.612 12.9334L12.5181 12.8066L11.868 11.8491L11.6897 11.5607L11.2238 10.761L11.0816 10.4996L10.6787 9.64886L10.6024 9.45343L10.3714 8.802L10.2823 8.49429L10.2137 8.21014L10.1558 7.90157L10.1104 7.55871L10.092 7.33971L10.0843 6.966L10.086 6.88757L10.0967 6.66386L10.1773 5.84914L10.2026 5.70643L10.386 4.89257L10.428 4.75629L10.5643 4.359L10.608 4.25614L10.8248 3.77957L10.9753 3.49586L11.1848 3.15043L11.3936 2.84271L11.5423 2.64729L11.7137 2.44071L11.9023 2.23329L12.0638 2.07129L12.4573 1.725L12.7448 1.48971C12.7517 1.48371 12.759 1.47857 12.7663 1.47343L13.1066 1.24329L13.377 1.071L13.8904 0.800571C13.8981 0.795857 13.9071 0.792 13.9153 0.788143L14.643 0.486L14.7103 0.460714L15.3574 0.271286L15.6308 0.21L16.0003 0.135857L16.2454 0.0985714L16.6213 0.0518571L16.8776 0.0291429L17.3863 0.00214286L17.5856 0L17.9631 0.00771429L18.0613 0.0132857L18.6081 0.0587143L19.3311 0.160714L19.4147 0.178286L20.1296 0.356143L20.3396 0.418714L20.5727 0.499286L20.8568 0.606857L21.0814 0.702L21.4114 0.857571L21.6193 0.964286L21.993 1.18371L22.1323 1.26943L22.6418 1.64143L22.788 1.76829L23.1428 2.09143L23.1604 2.109L23.4617 2.43214L23.5654 2.54914L23.919 3.01886L23.991 3.13114L24.2717 3.60514L24.3561 3.76757L24.5143 4.12114L24.6797 4.53386L24.7384 4.70657L24.909 5.328C24.9121 5.33902 24.9146 5.35018 24.9167 5.36143L25.0496 6.20186L25.0761 6.49286L25.0976 6.86829L25.0997 6.94629L25.0916 7.36543L25.0847 7.47643L25.062 7.65771L24.945 8.32714L24.9167 8.44971L24.6471 9.29057C24.6447 9.2987 24.6418 9.30671 24.6386 9.31457L24.3883 9.92057L24.3788 9.94071L24.0518 10.5934L23.4801 11.589L23.1767 12.0531L22.8128 12.5979L22.5561 12.9497L22.0474 13.6299L21.7011 14.0653L21.1894 14.688L20.8307 15.1076L20.2791 15.7281L19.9243 16.1177L18.8983 17.1891L18.66 17.4249L18.8006 17.5449C18.9998 17.7283 19.1871 17.9241 19.3611 18.132C19.4134 18.1954 19.464 18.2601 19.5128 18.3261C19.6196 18.4701 19.7156 18.6223 19.8 18.7804C19.8454 18.8661 19.8861 18.9549 19.9221 19.0453C20.004 19.2527 20.0593 19.4721 20.0798 19.6937L20.0893 19.8621C20.0944 20.1844 20.0357 20.505 19.9157 20.8041C19.7622 21.1883 19.5093 21.5247 19.1828 21.7787C19.0688 21.8679 18.9471 21.9463 18.8194 22.014C18.5234 22.1682 18.2006 22.2641 17.8684 22.2964H17.8663C17.4768 22.3355 17.0834 22.2908 16.7126 22.1653C16.5419 22.106 16.3781 22.0286 16.224 21.9343C16.0433 21.8237 15.8782 21.6894 15.7333 21.5349C15.5341 21.3226 15.3762 21.0751 15.2678 20.805C15.1612 20.5384 15.1027 20.255 15.0951 19.968L15.0981 19.7644C15.1136 19.5287 15.1646 19.2966 15.2494 19.0761C15.2824 18.9896 15.3197 18.9051 15.3613 18.8229C15.4427 18.6643 15.5361 18.5121 15.6403 18.3673C15.7084 18.2726 15.7808 18.1804 15.8563 18.0913C16.0136 17.907 16.1816 17.7317 16.3586 17.5667L16.4237 17.508L16.5283 17.4206Z" fill="#281950"/>
<path fill-rule="evenodd" clip-rule="evenodd" d="M15.0009 31.3196L19.1992 27.7766C19.2761 27.7122 19.3732 27.6769 19.4735 27.6767C19.5738 27.6765 19.671 27.7116 19.7482 27.7757L24.0073 31.3196C24.2662 31.5304 24.5902 31.6457 24.924 31.6461H14.0897C14.4223 31.6461 14.7442 31.5309 15.0009 31.3196ZM17.6143 18.672L17.6554 18.684C17.6687 18.6904 17.6799 18.6994 17.6919 18.7076L17.7262 18.738C17.811 18.816 17.8933 18.8979 17.9726 18.9819C18.0283 19.0414 18.0827 19.1027 18.135 19.1661C18.2014 19.2463 18.2636 19.3303 18.3202 19.4177C18.3446 19.4563 18.3673 19.4953 18.3887 19.536C18.4072 19.5711 18.4239 19.6076 18.4384 19.6444C18.4642 19.7087 18.4834 19.7764 18.4894 19.8454L18.4882 19.9749C18.4795 20.0917 18.4433 20.2048 18.3824 20.3048C18.3215 20.4049 18.2378 20.4891 18.138 20.5504C18.0085 20.6288 17.8628 20.6767 17.712 20.6906L17.5522 20.6953L17.4172 20.6833C17.354 20.6741 17.2919 20.659 17.2316 20.6383C17.1702 20.6174 17.1113 20.5898 17.0559 20.556L16.9504 20.4789C16.8262 20.3728 16.7416 20.2278 16.7104 20.0674C16.7052 20.0405 16.7011 20.0133 16.698 19.986L16.6942 19.8626C16.6963 19.8291 16.7014 19.7961 16.7087 19.7631C16.7272 19.6911 16.7537 19.6213 16.7871 19.5549C16.8304 19.4717 16.8797 19.3916 16.9346 19.3153C17.0259 19.1919 17.1249 19.0744 17.2307 18.9634C17.2989 18.8914 17.3687 18.8216 17.4416 18.7543L17.4934 18.7076C17.5294 18.684 17.5299 18.684 17.571 18.672H17.6143ZM17.349 1.46572L17.3657 1.46443V15.8923L17.3297 15.8259C16.8548 14.9473 16.4126 14.0514 16.0041 13.14C15.6728 12.4022 15.3727 11.6509 15.1046 10.8879C14.8905 10.2801 14.7096 9.66119 14.5624 9.03386C14.4489 8.53543 14.3614 8.02972 14.3254 7.51886C14.3114 7.30087 14.3073 7.08237 14.313 6.864C14.3164 6.67372 14.3242 6.48386 14.3362 6.294C14.355 5.99572 14.3854 5.69786 14.4292 5.40215C14.4639 5.16943 14.5067 4.93757 14.5594 4.70829C14.6014 4.52615 14.6503 4.34529 14.706 4.16743C14.7866 3.91029 14.883 3.65915 14.9953 3.414C15.0364 3.32572 15.0806 3.23786 15.1269 3.15172C15.4054 2.63572 15.7834 2.16043 16.2784 1.84286C16.6001 1.63349 16.9672 1.50417 17.349 1.46572ZM19.2197 1.50215L20.1904 1.779C20.64 1.94486 21.0729 2.16086 21.4706 2.43086C22.0127 2.79675 22.4799 3.26282 22.8472 3.804C23.0623 4.12457 23.2406 4.47043 23.3799 4.83172C23.5817 5.36615 23.7069 5.92629 23.751 6.49543C23.7639 6.64457 23.7712 6.79415 23.7742 6.94372C23.7776 7.08257 23.7767 7.22186 23.7656 7.36072C23.7382 7.67143 23.6799 7.97872 23.5912 8.27786C23.52 8.52266 23.436 8.76356 23.3396 8.99958C23.2196 9.29315 23.0863 9.58115 22.9402 9.86229C22.617 10.4867 22.2446 11.0846 21.846 11.6627C21.3519 12.3733 20.8252 13.0606 20.2676 13.7224C19.6621 14.4445 19.0307 15.1444 18.3746 15.8207C18.8198 14.9858 19.2353 14.1354 19.6204 13.2711C19.8347 12.7894 20.0366 12.3026 20.2264 11.811C20.4352 11.271 20.6237 10.7237 20.7909 10.1696C20.9152 9.75429 21.0249 9.33472 21.1153 8.91043C21.1929 8.54657 21.2537 8.17886 21.2914 7.809C21.3232 7.50043 21.3347 7.19015 21.327 6.88072C21.3241 6.6913 21.3171 6.50197 21.306 6.31286C21.2606 5.55215 21.1449 4.79357 20.9229 4.06372C20.8388 3.787 20.7366 3.51612 20.6169 3.25286C20.3327 2.634 19.9363 2.05586 19.3997 1.63372L19.2197 1.50215Z" fill="white"/>
<path fill-rule="evenodd" clip-rule="evenodd" d="M76.8056 27.5558L72.198 17.6923C71.8131 16.8707 71.5839 16.5703 71.199 16.2219L70.8244 15.8841C70.5257 15.5944 70.3294 15.3261 70.3294 15.0077C70.3294 14.5517 70.6907 14.1677 71.3486 14.1677H75.3489C75.9767 14.1677 76.368 14.4943 76.368 14.982C76.368 15.2541 76.2429 15.4581 76.0847 15.6583C75.897 15.8961 75.6527 16.128 75.6527 16.5506C75.6527 16.8154 75.7299 17.0794 75.8786 17.4167L78.6283 23.856L81.0947 17.5787C81.2464 17.1613 81.3501 16.7936 81.3501 16.4991C81.3501 16.041 81.1011 15.8541 80.9091 15.6493C80.742 15.4714 80.6083 15.2833 80.6083 14.982C80.6083 14.4896 81.009 14.1677 81.5481 14.1677H84.0116C84.7024 14.1677 85.0307 14.5251 85.0307 14.982C85.0307 15.2743 84.8623 15.5451 84.531 15.8374L84.1826 16.1237C83.6974 16.5201 83.4729 17.0936 83.2179 17.6867L79.4824 26.6858C79.041 27.738 78.384 29.1986 77.3803 30.3969C76.3607 31.614 74.9859 32.5603 73.1237 32.5603C71.5646 32.5603 70.6209 31.8159 70.6209 30.7431C70.6209 29.7604 71.3477 28.9774 72.3026 28.9774C72.8254 28.9774 73.0976 29.2243 73.3736 29.4784C73.6016 29.688 73.833 29.9031 74.2894 29.9031C74.7129 29.9031 75.1071 29.724 75.4646 29.4347C76.0106 28.9933 76.4679 28.2981 76.8056 27.5558ZM103.881 27.5207C105.954 27.5207 107.654 26.8101 108.979 25.392C110.304 23.976 110.966 22.2716 110.966 20.2787C110.966 18.3334 110.337 16.7353 109.082 15.4826C107.828 14.2307 106.201 13.602 104.198 13.602C102.09 13.602 100.365 14.2864 99.0223 15.6506C97.6787 17.016 97.0067 18.6699 97.0067 20.6126C97.0067 22.5381 97.6479 24.1701 98.928 25.509C100.209 26.8487 101.859 27.5207 103.881 27.5207ZM86.343 27.3664C87.5421 27.3664 88.395 26.559 88.395 25.395C88.395 24.2584 87.5143 23.4493 86.343 23.4493C85.116 23.4493 84.2379 24.2597 84.2379 25.395C84.2379 26.5577 85.1164 27.3664 86.343 27.3664ZM90.6133 25.5214L90.9051 25.2129C91.2523 24.8756 91.3641 24.5349 91.3641 23.5954V18.0416C91.3641 17.2294 91.2536 16.8669 90.909 16.5566L90.5657 16.2489C90.2293 15.9519 90.1187 15.7671 90.1187 15.4706C90.1187 15.0488 90.4457 14.703 90.9716 14.583L93.303 14.0173C93.5259 13.9633 93.7774 13.9106 93.9724 13.9106C94.2407 13.9106 94.4601 13.9989 94.614 14.1519C94.7683 14.3053 94.8591 14.526 94.8591 14.802V23.5954C94.8591 24.4821 94.9667 24.8944 95.337 25.206C95.343 25.2111 95.3486 25.2167 95.3537 25.2227L95.6143 25.5261C95.9417 25.8446 96.0776 26.0558 96.0776 26.3464C96.0776 26.8646 95.6867 27.1607 95.0589 27.1607H91.1113C90.513 27.1607 90.1187 26.8663 90.1187 26.3464C90.1187 26.0546 90.2546 25.8416 90.6133 25.5214ZM64.2274 25.5218L64.5193 25.2129C64.8669 24.8756 64.9783 24.5349 64.9783 23.5954V11.9996C64.9783 11.2131 64.8951 10.827 64.527 10.5171L64.1747 10.176C63.8709 9.88071 63.7599 9.69771 63.7599 9.40242C63.7599 8.98028 64.0886 8.63571 64.5857 8.51528L66.8906 7.94956C67.1139 7.89556 67.365 7.84285 67.5604 7.84285C67.8266 7.84285 68.052 7.92299 68.2127 8.07514C68.3739 8.22771 68.4733 8.45442 68.4733 8.75999V23.5954C68.4733 24.4843 68.5839 24.873 68.9554 25.2094L69.2529 25.524C69.5824 25.8446 69.6921 26.0546 69.6921 26.3464C69.6921 26.5616 69.6266 26.7351 69.5096 26.8676C69.3446 27.054 69.0681 27.1607 68.6996 27.1607H64.7524C64.3839 27.1607 64.1074 27.054 63.942 26.8676C63.8254 26.7351 63.7599 26.5616 63.7599 26.3464C63.7599 26.0541 63.8683 25.8424 64.2274 25.5218ZM53.4793 19.5501V23.544C53.4793 24.1457 53.5984 24.7016 54.0943 25.1588L54.4149 25.47C54.774 25.8184 54.8833 26.0271 54.8833 26.3464C54.8833 26.8341 54.492 27.1607 53.8641 27.1607H49.4134C48.7856 27.1607 48.3947 26.8341 48.3947 26.3464C48.3947 25.9676 48.5057 25.788 48.8649 25.4683L49.1841 25.158C49.5561 24.8211 49.7987 24.3621 49.7987 23.544V12.8738C49.7987 12.2237 49.6547 11.6919 49.1837 11.2586L48.8627 10.9474C48.5327 10.6273 48.3947 10.4169 48.3947 10.0967C48.3947 9.57985 48.7869 9.25671 49.4134 9.25671H61.335C61.7906 9.25671 62.1909 9.35828 62.4467 9.60899C62.6246 9.78342 62.7381 10.0294 62.751 10.371L62.9366 13.1229C62.955 13.467 62.8534 13.7537 62.655 13.9307C62.5183 14.0524 62.3344 14.1253 62.103 14.1253C61.8111 14.1253 61.5874 14.0151 61.3877 13.8248C61.2081 13.6538 61.0483 13.4138 60.8679 13.1314C60.4324 12.4354 60.2297 12.1851 59.7656 11.8599C59.1197 11.3833 58.1357 11.2196 56.2749 11.2196C55.2013 11.2196 54.5237 11.2663 54.0969 11.3764C53.8209 11.4476 53.6614 11.5401 53.5761 11.676C53.4887 11.8148 53.4793 11.9906 53.4793 12.2053V17.613H56.2749C56.9439 17.613 57.4144 17.4921 57.9596 16.7469L57.9626 16.7426C58.1811 16.4644 58.3393 16.2596 58.4897 16.1237C58.665 15.9651 58.8334 15.8901 59.0567 15.8901C59.2715 15.8921 59.4768 15.9788 59.628 16.1313C59.7791 16.2839 59.8638 16.4901 59.8637 16.7049V20.433C59.8637 20.9323 59.4746 21.273 59.0567 21.273C58.8489 21.273 58.68 21.1989 58.5043 21.0437C58.353 20.9109 58.1944 20.7116 57.9887 20.4454C57.3921 19.6731 56.9709 19.5501 56.2749 19.5501H53.4793ZM100.714 19.4558C100.714 18.1183 101.005 17.157 101.609 16.5788C102.206 16.008 102.847 15.7191 103.536 15.7191C104.484 15.7191 105.338 16.2497 106.109 17.2928C106.896 18.3596 107.286 19.8013 107.286 21.6154C107.286 22.9543 106.993 23.9246 106.389 24.5194C105.792 25.1061 105.152 25.4036 104.463 25.4036C103.515 25.4036 102.661 24.8687 101.891 23.8174C101.103 22.7417 100.714 21.2871 100.714 19.4558ZM92.913 12.2224C94.1147 12.2224 94.965 11.5461 94.965 10.3796C94.965 9.24042 94.1156 8.56242 92.913 8.56242C91.6826 8.56242 90.834 9.24085 90.834 10.3796C90.834 11.5178 91.683 12.2224 92.913 12.2224Z" fill="#281950"/>
<defs>
<radialGradient id="paint0_radial_1_415" cx="0" cy="0" r="1" gradientUnits="userSpaceOnUse" gradientTransform="translate(18.6827 17.8774) scale(25.4899)">
<stop stop-color="#BA7BF0"/>
<stop offset="0.45" stop-color="#996BEC"/>
<stop offset="1" stop-color="#5046E4"/>
</radialGradient>
</defs>
</svg>
