<svg width="88" height="90" viewBox="0 0 88 90" fill="none" xmlns="http://www.w3.org/2000/svg">
<g filter="url(#filter0_ddd_1_75)">
<rect x="20" y="1.52002" width="48" height="48" rx="10" fill="url(#paint0_linear_1_75)" shape-rendering="crispEdges"/>
<path d="M41.3744 21.7604L40.3784 19.5872C40.7771 19.6249 41.1786 19.5568 41.5426 19.39C41.9066 19.2232 42.2203 18.9634 42.452 18.6368L43.4468 20.8088C44.2309 20.6454 45.0422 20.666 45.8169 20.869C46.5917 21.072 47.3088 21.4519 47.912 21.9788L50.8556 19.8356C50.8981 20.2338 51.0445 20.6138 51.2802 20.9375C51.5159 21.2613 51.8325 21.5173 52.1984 21.68L49.256 23.822C49.7528 24.974 49.8128 26.2688 49.4252 27.4628L52.01 29.0024C51.6608 29.1981 51.3692 29.4822 51.1645 29.8261C50.9598 30.1701 50.8491 30.5618 50.8436 30.962L48.2564 29.4224C47.7741 29.9313 47.1932 30.3364 46.549 30.6131C45.9049 30.8898 45.2111 31.0322 44.51 31.0316C43.886 31.0316 43.2872 30.9212 42.7328 30.7184L41.4632 32.6828C41.2805 32.3265 41.0073 32.0245 40.6708 31.8074C40.3344 31.5902 39.9467 31.4654 39.5468 31.4456L40.8176 29.4776C40.1479 28.7945 39.6814 27.9386 39.47 27.0056V27.0068H36.8504C37.0514 26.6603 37.1573 26.2668 37.1573 25.8662C37.1573 25.4656 37.0514 25.0721 36.8504 24.7256H39.47C39.7377 23.5446 40.4118 22.4951 41.3744 21.7604ZM44.51 22.9268C43.7462 22.952 43.0219 23.2722 42.4893 23.8203C41.9567 24.3683 41.6573 25.1015 41.654 25.8656C41.6573 26.6298 41.9567 27.363 42.4893 27.911C43.0219 28.4591 43.7462 28.7793 44.51 28.8044C45.2893 28.8041 46.0366 28.4944 46.5877 27.9433C47.1388 27.3923 47.4485 26.645 47.4488 25.8656C47.4485 25.0863 47.1388 24.339 46.5877 23.7879C46.0366 23.2369 45.2893 22.9272 44.51 22.9268Z" fill="#F59E0B" fill-opacity="0.3"/>
<path d="M39.4352 31.442L39.5084 31.4408C40.7576 31.4408 41.7872 32.4692 41.7872 33.7196C41.7844 34.3231 41.5434 34.9011 41.1166 35.3278C40.6899 35.7546 40.1119 35.9956 39.5084 35.9984L39.4328 35.9972C38.8426 35.9752 38.2838 35.7259 37.8732 35.3015C37.4626 34.877 37.232 34.3102 37.2296 33.7196C37.2296 32.4968 38.2136 31.4816 39.4352 31.442ZM53.1212 28.712C53.7119 28.7337 54.2713 28.983 54.6824 29.4077C55.0935 29.8325 55.3244 30.3997 55.3268 30.9908C55.3244 31.5819 55.0935 32.1492 54.6824 32.5739C54.2713 32.9987 53.7119 33.2479 53.1212 33.2696C52.5305 33.2479 51.9711 32.9987 51.56 32.5739C51.1489 32.1492 50.918 31.5819 50.9156 30.9908C50.9156 29.768 51.8984 28.7516 53.1212 28.712ZM34.8788 23.588C35.482 23.5915 36.0595 23.8327 36.4859 24.2594C36.9123 24.686 37.1533 25.2636 37.1564 25.8668C37.1536 26.4703 36.9126 27.0483 36.4858 27.475C36.0591 27.9018 35.4811 28.1428 34.8776 28.1456C34.2744 28.1422 33.6957 27.9009 33.2693 27.4743C32.8429 27.0476 32.602 26.47 32.5988 25.8668C32.5988 24.6164 33.6284 23.588 34.8788 23.588ZM53.1212 17.3192C53.7245 17.3227 54.3021 17.5639 54.7287 17.9905C55.1553 18.4171 55.3965 18.9947 55.4 19.598C55.3968 20.2017 55.1556 20.781 54.7287 21.2079C54.3018 21.6348 53.7237 21.8761 53.12 21.8792C52.5163 21.8761 51.9382 21.6348 51.5113 21.2079C51.0844 20.781 50.8432 20.2029 50.84 19.5992C50.84 18.3488 51.8708 17.3192 53.1212 17.3192ZM40.5932 15.0416C41.8424 15.0416 42.872 16.07 42.872 17.3192C42.8692 17.9227 42.6282 18.5007 42.2014 18.9274C41.7747 19.3542 41.1967 19.5952 40.5932 19.598C39.99 19.5952 39.4124 19.3543 38.9858 18.9278C38.5593 18.5013 38.3184 17.9236 38.3156 17.3204C38.3156 16.07 39.344 15.0416 40.5932 15.0416Z" fill="#F59E0B" fill-opacity="0.7"/>
<path fill-rule="evenodd" clip-rule="evenodd" d="M35.4728 23.6684C36.056 23.828 36.548 24.2144 36.8468 24.7256H39.47C39.7377 23.5446 40.4118 22.4951 41.3744 21.7604L40.3784 19.5872C39.8151 19.5314 39.2925 19.2688 38.9115 18.8502C38.5305 18.4315 38.3182 17.8865 38.3156 17.3204C38.3156 16.07 39.344 15.0416 40.5932 15.0416C41.8424 15.0416 42.872 16.07 42.872 17.3192C42.872 17.948 42.608 18.4544 42.464 18.6644L43.4468 20.8088C44.2309 20.6454 45.0422 20.666 45.8169 20.869C46.5917 21.072 47.3088 21.4519 47.912 21.9788L50.8532 19.838C50.8216 19.5206 50.8567 19.2002 50.956 18.8971C51.0554 18.594 51.2169 18.315 51.4303 18.078C51.6436 17.8409 51.9041 17.6509 52.1951 17.5203C52.486 17.3897 52.8011 17.3212 53.12 17.3192C53.7233 17.3227 54.3021 17.5639 54.7287 17.9905C55.1553 18.4171 55.3965 18.9947 55.4 19.598C55.3968 20.2017 55.1556 20.781 54.7287 21.2079C54.3018 21.6348 53.7237 21.8761 53.12 21.8792C52.7924 21.8792 52.4792 21.8084 52.196 21.6812L49.256 23.822C49.7528 24.974 49.8128 26.2688 49.4252 27.4628L52.01 29.0024C51.6608 29.1981 51.3692 29.4822 51.1645 29.8261C50.9598 30.1701 50.8491 30.5618 50.8436 30.962L48.2564 29.4224C47.7741 29.9312 47.1932 30.3364 46.549 30.6131C45.9049 30.8897 45.2111 31.0322 44.51 31.0316C43.886 31.0316 43.2872 30.9212 42.7328 30.7184L41.5016 32.6228C41.6828 32.9492 41.7872 33.3236 41.7872 33.7196C41.7844 34.3231 41.5434 34.9011 41.1166 35.3278C40.6899 35.7546 40.1119 35.9956 39.5084 35.9984L39.4328 35.9972C38.8426 35.9752 38.2838 35.7259 37.8732 35.3015C37.4626 34.877 37.232 34.3102 37.2296 33.7196C37.2318 33.2319 37.3895 32.7576 37.6797 32.3657C37.97 31.9738 38.3777 31.6847 38.8436 31.5404C38.8669 31.6805 38.9391 31.8078 39.0475 31.8997C39.1558 31.9915 39.2932 32.042 39.4352 32.042V32.03C39.3102 32.0057 39.1963 31.9422 39.1098 31.8488C39.0233 31.7554 38.9687 31.6369 38.954 31.5104C39.1114 31.4699 39.2728 31.447 39.4352 31.442L39.5492 31.4408L40.8176 29.4776C40.29 28.9396 39.887 28.2924 39.6368 27.5816C39.7617 27.5455 39.8714 27.4698 39.9495 27.3659C40.0276 27.262 40.0699 27.1356 40.07 27.0056C40.07 27.104 39.7844 27.3524 39.6068 27.4976L39.5876 27.4364L39.5792 27.4088C39.7424 27.1244 40.0352 26.6624 40.0676 26.948C40.0649 26.923 40.0609 26.8982 40.0556 26.8736C40.2416 27.698 40.6544 28.454 41.246 29.0576C41.4428 29.258 41.474 29.5676 41.3216 29.8028L40.0532 31.7672C39.9987 31.8513 39.924 31.9203 39.836 31.9681C39.748 32.0159 39.6494 32.0409 39.5492 32.0408L39.4376 32.042C39.0057 32.0623 38.598 32.2477 38.2988 32.5599C37.9995 32.8721 37.8316 33.2872 37.8296 33.7196C37.8312 34.1644 38.0086 34.5905 38.3231 34.905C38.6376 35.2195 39.0636 35.3968 39.5084 35.3984C40.4288 35.3984 41.1872 34.6412 41.1872 33.7196C41.1872 33.428 41.1104 33.1532 40.9772 32.9144C40.9247 32.8193 40.8988 32.7118 40.9024 32.6032C40.906 32.4946 40.9389 32.389 40.9976 32.2976L42.2288 30.3932C42.3025 30.2787 42.413 30.1927 42.5421 30.1493C42.6712 30.1059 42.8113 30.1077 42.9392 30.1544C43.4288 30.3344 43.958 30.4316 44.51 30.4316C45.1293 30.432 45.7435 30.3061 46.3125 30.0616C46.8815 29.8171 47.3948 29.4591 47.8208 29.0096C47.9145 28.9106 48.0391 28.8464 48.1741 28.8277C48.3091 28.8089 48.4465 28.8367 48.5636 28.9064L50.4164 30.0092C50.5412 29.6684 50.7284 29.3528 50.9696 29.0804L49.118 27.9788C49.001 27.9091 48.9111 27.8016 48.8631 27.674C48.8151 27.5465 48.8119 27.4064 48.854 27.2768C49.1973 26.222 49.1444 25.0783 48.7052 24.0596C48.6511 23.9346 48.6413 23.795 48.6773 23.6636C48.7133 23.5323 48.793 23.4172 48.9032 23.3372L51.8432 21.1964C51.9287 21.1342 52.0291 21.0956 52.1342 21.0847C52.2394 21.0737 52.3455 21.0907 52.442 21.134C52.6496 21.2276 52.8788 21.2792 53.12 21.2792C54.0416 21.2792 54.8 20.5208 54.8 19.5992C54.8 18.6788 54.0416 17.9192 53.1212 17.9192C52.8862 17.9206 52.6529 17.971 52.4386 18.0672C52.2242 18.1633 52.0322 18.3032 51.875 18.4778C51.7178 18.6525 51.5987 18.858 51.5255 19.0812C51.4522 19.3045 51.4264 19.5406 51.4496 19.7744C51.4607 19.8792 51.444 19.985 51.4013 20.0813C51.3585 20.1775 51.2912 20.2608 51.206 20.3228L48.2648 22.4636C48.155 22.5437 48.0212 22.5841 47.8853 22.5782C47.7495 22.5724 47.6197 22.5205 47.5172 22.4312C46.9839 21.9652 46.3499 21.6292 45.6649 21.4495C44.9799 21.2698 44.2625 21.2514 43.5692 21.3956C43.4361 21.4235 43.2974 21.4053 43.176 21.3441C43.0545 21.2828 42.9575 21.1821 42.9008 21.0584L41.9192 18.914C41.8762 18.82 41.8583 18.7164 41.8671 18.6134C41.8759 18.5104 41.9112 18.4114 41.9696 18.326C42.1639 18.0259 42.2688 17.6767 42.272 17.3192C42.272 16.3988 41.5136 15.6416 40.5932 15.6416C39.6728 15.6416 38.9156 16.3988 38.9156 17.3204C38.9156 18.1868 39.5876 18.9092 40.436 18.9908C40.5406 19.001 40.6407 19.0384 40.7264 19.0992C40.812 19.1601 40.8803 19.2422 40.9244 19.3376L41.9204 21.5108C41.9768 21.6346 41.9894 21.7739 41.9563 21.9058C41.9232 22.0377 41.8462 22.1544 41.738 22.2368C40.8878 22.8872 40.2925 23.815 40.0556 24.8588C40.025 24.9913 39.9505 25.1095 39.8442 25.1943C39.7378 25.279 39.606 25.3253 39.47 25.3256H36.8468C36.7419 25.3257 36.6389 25.2982 36.5479 25.246C36.4569 25.1938 36.3813 25.1186 36.3284 25.028C36.181 24.7737 35.9697 24.5624 35.7154 24.4151C35.4611 24.2677 35.1727 24.1894 34.8788 24.188C33.9572 24.188 33.1988 24.9464 33.1988 25.8668C33.1988 26.7872 33.956 27.5444 34.8764 27.5456C35.4932 27.5456 36.0368 27.2048 36.3296 26.7044C36.3822 26.6139 36.4576 26.5387 36.5484 26.4865C36.6392 26.4342 36.7421 26.4068 36.8468 26.4068H39.47V27.0068H38.9228C38.8904 26.984 38.87 26.9792 38.87 27.0056V27.0068H36.8468C36.4508 27.686 35.714 28.1456 34.8776 28.1456C34.2744 28.1422 33.6957 27.9009 33.2693 27.4743C32.8429 27.0476 32.602 26.47 32.5988 25.8668C32.5988 24.6164 33.6284 23.588 34.8788 23.588C35.084 23.588 35.2832 23.6156 35.4728 23.6684ZM53.1212 28.712C53.7119 28.7337 54.2713 28.983 54.6824 29.4077C55.0935 29.8325 55.3244 30.3997 55.3268 30.9908C55.3244 31.5819 55.0935 32.1492 54.6824 32.5739C54.2713 32.9987 53.7119 33.2479 53.1212 33.2696C52.5305 33.2479 51.9711 32.9987 51.56 32.5739C51.1489 32.1492 50.918 31.5819 50.9156 30.9908C50.9156 29.768 51.8984 28.7516 53.1212 28.712ZM53.1212 29.312C53.5528 29.3332 53.9599 29.5191 54.2586 29.8314C54.5573 30.1437 54.7249 30.5587 54.7268 30.9908C54.7268 31.8812 54.02 32.6228 53.1344 32.6684C52.7006 32.6505 52.2904 32.4663 51.989 32.1539C51.6875 31.8415 51.518 31.4249 51.5156 30.9908C51.5156 30.1004 52.2224 29.3588 53.108 29.3132L53.1212 29.312ZM44.51 22.3268H44.4932C43.5735 22.3572 42.7014 22.7429 42.0601 23.4028C41.4188 24.0627 41.0582 24.9454 41.054 25.8656C41.0582 26.7858 41.4188 27.6686 42.0601 28.3285C42.7014 28.9883 43.5735 29.374 44.4932 29.4044H44.51C45.4485 29.4041 46.3484 29.0312 47.012 28.3676C47.6755 27.704 48.0485 26.8041 48.0488 25.8656C48.0485 24.9272 47.6755 24.0273 47.012 23.3637C46.3484 22.7001 45.4485 22.3271 44.51 22.3268ZM44.51 22.9268C43.7462 22.952 43.0219 23.2722 42.4893 23.8202C41.9567 24.3683 41.6573 25.1014 41.654 25.8656C41.6573 26.6298 41.9567 27.363 42.4893 27.911C43.0219 28.459 43.7462 28.7793 44.51 28.8044C45.2893 28.8041 46.0366 28.4944 46.5877 27.9433C47.1388 27.3923 47.4485 26.6449 47.4488 25.8656C47.4485 25.0863 47.1388 24.339 46.5877 23.7879C46.0366 23.2369 45.2893 22.9271 44.51 22.9268Z" fill="#F59E0B"/>
</g>
<defs>
<filter id="filter0_ddd_1_75" x="0" y="0.52002" width="88" height="89" filterUnits="userSpaceOnUse" color-interpolation-filters="sRGB">
<feFlood flood-opacity="0" result="BackgroundImageFix"/>
<feColorMatrix in="SourceAlpha" type="matrix" values="0 0 0 0 0 0 0 0 0 0 0 0 0 0 0 0 0 0 127 0" result="hardAlpha"/>
<feMorphology radius="6" operator="erode" in="SourceAlpha" result="effect1_dropShadow_1_75"/>
<feOffset dy="8"/>
<feGaussianBlur stdDeviation="5"/>
<feComposite in2="hardAlpha" operator="out"/>
<feColorMatrix type="matrix" values="0 0 0 0 0.960784 0 0 0 0 0.619608 0 0 0 0 0.0431373 0 0 0 0.3 0"/>
<feBlend mode="normal" in2="BackgroundImageFix" result="effect1_dropShadow_1_75"/>
<feColorMatrix in="SourceAlpha" type="matrix" values="0 0 0 0 0 0 0 0 0 0 0 0 0 0 0 0 0 0 127 0" result="hardAlpha"/>
<feMorphology radius="5" operator="erode" in="SourceAlpha" result="effect2_dropShadow_1_75"/>
<feOffset dy="20"/>
<feGaussianBlur stdDeviation="12.5"/>
<feComposite in2="hardAlpha" operator="out"/>
<feColorMatrix type="matrix" values="0 0 0 0 0.960784 0 0 0 0 0.619608 0 0 0 0 0.0431373 0 0 0 0.3 0"/>
<feBlend mode="normal" in2="effect1_dropShadow_1_75" result="effect2_dropShadow_1_75"/>
<feColorMatrix in="SourceAlpha" type="matrix" values="0 0 0 0 0 0 0 0 0 0 0 0 0 0 0 0 0 0 127 0" result="hardAlpha"/>
<feMorphology radius="1" operator="dilate" in="SourceAlpha" result="effect3_dropShadow_1_75"/>
<feOffset/>
<feComposite in2="hardAlpha" operator="out"/>
<feColorMatrix type="matrix" values="0 0 0 0 0.984314 0 0 0 0 0.74902 0 0 0 0 0.141176 0 0 0 0.6 0"/>
<feBlend mode="normal" in2="effect2_dropShadow_1_75" result="effect3_dropShadow_1_75"/>
<feBlend mode="normal" in="SourceGraphic" in2="effect3_dropShadow_1_75" result="shape"/>
</filter>
<linearGradient id="paint0_linear_1_75" x1="20" y1="1.52002" x2="68" y2="49.52" gradientUnits="userSpaceOnUse">
<stop stop-color="#FEF08A" stop-opacity="0.75"/>
<stop offset="1" stop-color="#FED7AA" stop-opacity="0.75"/>
</linearGradient>
</defs>
</svg>
