<svg width="88" height="90" viewBox="0 0 88 90" fill="none" xmlns="http://www.w3.org/2000/svg">
<g filter="url(#filter0_ddd_1_42)">
<rect x="20" y="1.88" width="48" height="48" rx="10" fill="url(#paint0_linear_1_42)" shape-rendering="crispEdges"/>
<path d="M47.0864 36.2289C48.617 35.7714 50.0276 34.9814 51.2173 33.9154C52.407 32.8493 53.3464 31.5335 53.9684 30.062H49.2644C48.8804 32.54 48.1484 34.7565 47.0864 36.2289ZM54.4292 23.0925H49.4336C49.5248 24.0069 49.5776 24.944 49.5776 25.88C49.5776 26.816 49.5248 27.7532 49.4336 28.6676H54.4256C54.6716 27.7592 54.7976 26.822 54.8 25.88C54.8 24.9128 54.6644 23.9853 54.4292 23.0925ZM53.9636 21.6981C53.3424 20.2262 52.4032 18.91 51.2133 17.8438C50.0235 16.7776 48.6126 15.9879 47.0816 15.5312C48.1448 17.0037 48.8768 19.2201 49.2596 21.6981H53.9636Z" fill="#10B981" fill-opacity="0.7"/>
<path d="M40.1468 30.062C40.7792 33.9512 42.2684 36.6824 44.0024 36.6824C45.7352 36.6824 47.2256 33.9512 47.8568 30.062H40.1468ZM39.8204 25.88C39.8204 26.8472 39.8732 27.7748 39.9644 28.6676H48.0356C48.1268 27.7748 48.1796 26.8472 48.1796 25.88C48.1796 24.9128 48.1268 23.9852 48.0356 23.0924H39.9644C39.8732 23.9852 39.8204 24.9128 39.8204 25.88ZM47.8568 21.698C47.2256 17.8088 45.7352 15.0776 44.0024 15.0776C42.2684 15.0776 40.7792 17.8088 40.1468 21.698H47.8568Z" fill="#10B981" fill-opacity="0.5"/>
<path d="M34.0412 30.062C34.6622 31.5341 35.6014 32.8504 36.7912 33.9166C37.9811 34.9828 39.3921 35.7724 40.9232 36.2289C39.86 34.7565 39.128 32.54 38.7452 30.062H34.0412ZM38.4272 25.88C38.4272 24.944 38.4788 24.0069 38.57 23.0925H33.5744C33.3295 24.0015 33.2037 24.9386 33.2 25.88C33.2 26.8472 33.3392 27.7748 33.5744 28.6676H38.5664L38.4272 25.88ZM40.9184 15.5312C39.388 15.9878 37.9777 16.7776 36.7886 17.8438C35.5996 18.91 34.6613 20.2263 34.0412 21.6981H38.7452C39.1232 19.2201 39.8552 17.0037 40.9184 15.5312Z" fill="#10B981" fill-opacity="0.3"/>
<path d="M40.1468 30.062C40.7792 33.9512 42.2684 36.6824 44.0024 36.6824C45.7352 36.6824 47.2256 33.9512 47.8568 30.062H40.1468ZM47.0864 36.2288C48.617 35.7714 50.0276 34.9814 51.2173 33.9153C52.407 32.8493 53.3465 31.5335 53.9684 30.062H49.2644C48.8804 32.54 48.1484 34.7564 47.0864 36.2288ZM34.0412 30.062C34.6622 31.5341 35.6014 32.8504 36.7912 33.9166C37.9811 34.9828 39.3921 35.7724 40.9232 36.2288C39.86 34.7564 39.128 32.54 38.7452 30.062H34.0412ZM40.8644 30.662H47.1404C46.766 32.5652 46.178 34.1288 45.4448 35.114C45.0044 35.7044 44.5328 36.0824 44.0024 36.0824C43.472 36.0824 43.0004 35.7044 42.56 35.114C41.8256 34.1288 41.2376 32.5652 40.8644 30.662ZM48.4556 35.054C49.0412 33.8048 49.484 32.2976 49.7732 30.662H53.018C51.9992 32.5718 50.4016 34.1098 48.4544 35.0552L48.4556 35.054ZM34.9904 30.662H38.2364C38.5244 32.2976 38.9672 33.806 39.554 35.054C37.6062 34.1102 36.0082 32.5723 34.9904 30.662ZM54.4292 23.0924H49.4336C49.5248 24.0068 49.5776 24.944 49.5776 25.88C49.5776 26.816 49.5248 27.7532 49.4336 28.6676H54.4256C54.6716 27.7592 54.7976 26.822 54.8 25.88C54.8 24.9128 54.6644 23.9852 54.4292 23.0924ZM38.4272 25.88C38.4272 24.944 38.4788 24.0068 38.57 23.0924H33.5744C33.3295 24.0015 33.2037 24.9386 33.2 25.88C33.2 26.8472 33.3392 27.7748 33.5744 28.6676H38.5664L38.4272 25.88ZM39.8204 25.88C39.8204 26.8472 39.8732 27.7748 39.9644 28.6676H48.0356C48.1268 27.7748 48.1796 26.8472 48.1796 25.88C48.1796 24.9128 48.1268 23.9852 48.0356 23.0924H39.9644C39.8732 23.9852 39.8204 24.9128 39.8204 25.88ZM37.8272 25.88L37.9352 28.0676H34.046C33.8846 27.35 33.8021 26.6168 33.8 25.8812C33.8033 25.145 33.8854 24.4112 34.0448 23.6924H37.9148C37.8573 24.4202 37.8281 25.15 37.8272 25.88ZM40.4204 25.88C40.4204 25.1276 40.4528 24.3992 40.5116 23.6924H47.4884C47.6097 25.1483 47.6097 26.6118 47.4884 28.0676H40.5116C40.4509 27.34 40.4205 26.6102 40.4204 25.88ZM53.9576 23.6924C54.1173 24.4103 54.1986 25.1434 54.2 25.8788C54.1983 26.6151 54.1167 27.349 53.9564 28.0676H50.0888C50.205 26.6116 50.2054 25.1486 50.09 23.6924H53.9576ZM40.9184 15.5312C39.388 15.9878 37.9777 16.7776 36.7886 17.8438C35.5996 18.91 34.6613 20.2263 34.0412 21.698H38.7452C39.1232 19.22 39.8552 17.0036 40.9184 15.5312ZM47.8568 21.698C47.2256 17.8088 45.7352 15.0776 44.0024 15.0776C42.2684 15.0776 40.7792 17.8088 40.1468 21.698H47.8568ZM53.9636 21.698C53.3424 20.2262 52.4032 18.91 51.2134 17.8438C50.0235 16.7776 48.6126 15.9879 47.0816 15.5312C48.1448 17.0036 48.8768 19.22 49.2596 21.698H53.9636ZM53.0144 21.098H49.7684C49.4804 19.4624 49.0376 17.9552 48.4508 16.706C50.3987 17.6499 51.9966 19.1878 53.0144 21.098ZM39.5492 16.706C38.9636 17.9552 38.5208 19.4624 38.2352 21.098H34.9904C36.0068 19.1877 37.6035 17.6494 39.5504 16.7048L39.5492 16.706ZM47.1404 21.098H40.8644C41.2376 19.1948 41.8256 17.6312 42.56 16.646C43.0004 16.0556 43.472 15.6776 44.0024 15.6776C44.5328 15.6776 45.0044 16.0556 45.4448 16.646C46.178 17.6312 46.766 19.1948 47.1404 21.098Z" fill="#10B981"/>
</g>
<defs>
<filter id="filter0_ddd_1_42" x="0" y="0.880005" width="88" height="89" filterUnits="userSpaceOnUse" color-interpolation-filters="sRGB">
<feFlood flood-opacity="0" result="BackgroundImageFix"/>
<feColorMatrix in="SourceAlpha" type="matrix" values="0 0 0 0 0 0 0 0 0 0 0 0 0 0 0 0 0 0 127 0" result="hardAlpha"/>
<feMorphology radius="6" operator="erode" in="SourceAlpha" result="effect1_dropShadow_1_42"/>
<feOffset dy="8"/>
<feGaussianBlur stdDeviation="5"/>
<feComposite in2="hardAlpha" operator="out"/>
<feColorMatrix type="matrix" values="0 0 0 0 0.0627451 0 0 0 0 0.72549 0 0 0 0 0.505882 0 0 0 0.3 0"/>
<feBlend mode="normal" in2="BackgroundImageFix" result="effect1_dropShadow_1_42"/>
<feColorMatrix in="SourceAlpha" type="matrix" values="0 0 0 0 0 0 0 0 0 0 0 0 0 0 0 0 0 0 127 0" result="hardAlpha"/>
<feMorphology radius="5" operator="erode" in="SourceAlpha" result="effect2_dropShadow_1_42"/>
<feOffset dy="20"/>
<feGaussianBlur stdDeviation="12.5"/>
<feComposite in2="hardAlpha" operator="out"/>
<feColorMatrix type="matrix" values="0 0 0 0 0.0627451 0 0 0 0 0.72549 0 0 0 0 0.505882 0 0 0 0.3 0"/>
<feBlend mode="normal" in2="effect1_dropShadow_1_42" result="effect2_dropShadow_1_42"/>
<feColorMatrix in="SourceAlpha" type="matrix" values="0 0 0 0 0 0 0 0 0 0 0 0 0 0 0 0 0 0 127 0" result="hardAlpha"/>
<feMorphology radius="1" operator="dilate" in="SourceAlpha" result="effect3_dropShadow_1_42"/>
<feOffset/>
<feComposite in2="hardAlpha" operator="out"/>
<feColorMatrix type="matrix" values="0 0 0 0 0.0627451 0 0 0 0 0.72549 0 0 0 0 0.505882 0 0 0 0.35 0"/>
<feBlend mode="normal" in2="effect2_dropShadow_1_42" result="effect3_dropShadow_1_42"/>
<feBlend mode="normal" in="SourceGraphic" in2="effect3_dropShadow_1_42" result="shape"/>
</filter>
<linearGradient id="paint0_linear_1_42" x1="20" y1="1.88" x2="68" y2="49.88" gradientUnits="userSpaceOnUse">
<stop stop-color="#86EFAC" stop-opacity="0.5"/>
<stop offset="1" stop-color="#6EE7B7" stop-opacity="0.5"/>
</linearGradient>
</defs>
</svg>
