<svg width="88" height="90" viewBox="0 0 88 90" fill="none" xmlns="http://www.w3.org/2000/svg">
<g filter="url(#filter0_ddd_1_54)">
<rect x="20" y="1.88" width="48" height="48" rx="10" fill="url(#paint0_linear_1_54)" shape-rendering="crispEdges"/>
<path fill-rule="evenodd" clip-rule="evenodd" d="M44.0048 31.2296C44.7274 31.2302 45.4202 31.5175 45.9311 32.0285C46.442 32.5394 46.7294 33.2322 46.73 33.9548C46.7044 34.6605 46.4059 35.3289 45.8976 35.8191C45.3892 36.3093 44.7105 36.5833 44.0042 36.5833C43.298 36.5833 42.6192 36.3093 42.1109 35.8191C41.6025 35.3289 41.3041 34.6605 41.2784 33.9548C41.279 33.232 41.5665 32.539 42.0777 32.028C42.5889 31.5171 43.282 31.2299 44.0048 31.2296ZM38.0276 15.08C38.7502 15.0806 39.443 15.3679 39.9539 15.8789C40.4648 16.3898 40.7522 17.0826 40.7528 17.8052C40.753 18.3445 40.5933 18.8718 40.2938 19.3203C39.9943 19.7689 39.5685 20.1185 39.0703 20.325C38.5721 20.5315 38.0238 20.5856 37.4948 20.4804C36.9658 20.3753 36.4799 20.1156 36.0985 19.7342C35.7172 19.3528 35.4575 18.8669 35.3523 18.338C35.2472 17.809 35.3013 17.2607 35.5078 16.7625C35.7143 16.2642 36.0639 15.8384 36.5124 15.5389C36.961 15.2394 37.4883 15.0797 38.0276 15.08ZM49.9724 15.08C50.6812 15.101 51.3539 15.3973 51.8478 15.9061C52.3417 16.4149 52.6179 17.0961 52.6179 17.8052C52.6179 18.5142 52.3417 19.1954 51.8478 19.7042C51.3539 20.213 50.6812 20.5093 49.9724 20.5304C49.2498 20.5297 48.557 20.2424 48.0461 19.7315C47.5352 19.2205 47.2478 18.5277 47.2472 17.8052C47.2478 17.0826 47.5352 16.3898 48.0461 15.8789C48.557 15.3679 49.2498 15.0806 49.9724 15.08Z" fill="#3B82F6" fill-opacity="0.7"/>
<path d="M39.3656 20.1787V23.3107C39.3656 24.0319 39.9584 24.6235 40.6784 24.6235H47.3324C47.68 24.6216 48.0128 24.4827 48.2586 24.2369C48.5044 23.9911 48.6433 23.6583 48.6452 23.3107V20.1847C49.0505 20.4122 49.5076 20.5313 49.9724 20.5303C50.4166 20.5311 50.8543 20.4227 51.2468 20.2147V23.3107C51.2414 24.3473 50.8274 25.34 50.0945 26.0731C49.3616 26.8062 48.369 27.2206 47.3324 27.2263H45.3056V31.5607C44.9067 31.3428 44.4595 31.2285 44.005 31.2283C43.5504 31.2281 43.1031 31.342 42.704 31.5595V27.2263H40.6784C39.6416 27.221 38.6487 26.8067 37.9156 26.0735C37.1824 25.3404 36.7682 24.3475 36.7628 23.3107V20.2195C37.1655 20.4308 37.6147 20.5378 38.0694 20.5306C38.5241 20.5235 38.9697 20.4025 39.3656 20.1787Z" fill="#3B82F6" fill-opacity="0.3"/>
<path fill-rule="evenodd" clip-rule="evenodd" d="M48.6452 20.1848C48.1175 19.8914 47.7023 19.4311 47.4647 18.8761C47.2271 18.3211 47.1806 17.7028 47.3325 17.1185C47.4844 16.5342 47.8261 16.0169 48.3039 15.6479C48.7818 15.279 49.3687 15.0792 49.9724 15.08C50.5806 15.0807 51.1712 15.2849 51.65 15.6599C52.1289 16.0349 52.4686 16.5593 52.6151 17.1496C52.7616 17.7399 52.7065 18.3623 52.4586 18.9177C52.2106 19.4731 51.7841 19.9297 51.2468 20.2148V23.3108C51.2414 24.3474 50.8274 25.34 50.0945 26.0732C49.3616 26.8063 48.369 27.2207 47.3324 27.2264H45.3056V31.5608C45.8387 31.8495 46.2602 32.3079 46.5034 32.8632C46.7467 33.4186 46.7976 34.0392 46.6483 34.6268C46.499 35.2144 46.1579 35.7354 45.6791 36.1073C45.2003 36.4792 44.6111 36.6807 44.0048 36.68C43.282 36.6796 42.5889 36.3925 42.0777 35.8815C41.5665 35.3705 41.279 34.6775 41.2784 33.9548C41.2784 32.9216 41.8556 32.0216 42.704 31.5596V27.2264H40.6784C39.6416 27.221 38.6487 26.8067 37.9156 26.0736C37.1824 25.3404 36.7682 24.3476 36.7628 23.3108V20.2196C36.2247 19.9354 35.7971 19.4795 35.5479 18.9244C35.2987 18.3692 35.2424 17.7466 35.3878 17.1558C35.5332 16.5649 35.872 16.0396 36.3504 15.6634C36.8287 15.2873 37.4191 15.0819 38.0276 15.08C38.6303 15.0792 39.2162 15.2782 39.6937 15.646C40.1711 16.0138 40.5131 16.5296 40.666 17.1125C40.819 17.6955 40.7744 18.3127 40.539 18.8676C40.3037 19.4224 39.891 19.8835 39.3656 20.1788V23.3108C39.3656 24.032 39.9584 24.6236 40.6784 24.6236H47.3324C47.68 24.6217 48.0128 24.4827 48.2586 24.237C48.5044 23.9912 48.6433 23.6584 48.6452 23.3108V20.1848ZM49.2452 23.312V19.8332L48.938 19.6616C48.5279 19.4318 48.2055 19.0727 48.0211 18.6403C47.8367 18.2079 47.8009 17.7266 47.9191 17.2717C48.0372 16.8167 48.3029 16.4137 48.6744 16.1258C49.0459 15.8378 49.5023 15.681 49.9724 15.68C50.4466 15.6808 50.907 15.8401 51.2802 16.1326C51.6535 16.4251 51.9183 16.834 52.0325 17.2943C52.1467 17.7545 52.1038 18.2398 51.9105 18.6728C51.7173 19.1059 51.3848 19.4619 50.966 19.6844L50.6468 19.8536V23.3108C50.6421 24.1884 50.2914 25.0289 49.6709 25.6496C49.0504 26.2703 48.2101 26.6213 47.3324 26.6264H44.7056V31.9172L45.0188 32.0876C45.4344 32.3133 45.7628 32.6712 45.9522 33.1045C46.1415 33.5379 46.1811 34.022 46.0645 34.4803C45.9478 34.9386 45.6818 35.345 45.3083 35.6352C44.9349 35.9253 44.4754 36.0827 44.0024 36.0824C43.5295 36.0821 43.0702 35.9242 42.6971 35.6336C42.324 35.343 42.0584 34.9363 41.9423 34.4779C41.8263 34.0194 41.8663 33.5353 42.0562 33.1022C42.2461 32.6691 42.575 32.3116 42.9908 32.0864L43.304 31.916V26.6264H40.6784C39.8004 26.6219 38.9596 26.2712 38.3388 25.6504C37.718 25.0295 37.3672 24.1887 37.3628 23.3108V19.8572L37.0424 19.6892C36.6227 19.4676 36.2891 19.1121 36.0946 18.6792C35.9002 18.2462 35.8561 17.7607 35.9694 17.2998C36.0826 16.8389 36.3467 16.4291 36.7197 16.1356C37.0926 15.8421 37.553 15.6817 38.0276 15.68C38.4968 15.681 38.9525 15.8373 39.3237 16.1243C39.6948 16.4114 39.9606 16.8131 40.0796 17.267C40.1986 17.7209 40.1642 18.2014 39.9816 18.6336C39.7991 19.0658 39.4787 19.4256 39.0704 19.6568L38.7656 19.8296V23.3108C38.7656 24.3608 39.6296 25.2236 40.6784 25.2236H47.3324C48.3812 25.2236 49.244 24.3608 49.2452 23.312Z" fill="#3B82F6"/>
</g>
<defs>
<filter id="filter0_ddd_1_54" x="0" y="0.880005" width="88" height="89" filterUnits="userSpaceOnUse" color-interpolation-filters="sRGB">
<feFlood flood-opacity="0" result="BackgroundImageFix"/>
<feColorMatrix in="SourceAlpha" type="matrix" values="0 0 0 0 0 0 0 0 0 0 0 0 0 0 0 0 0 0 127 0" result="hardAlpha"/>
<feMorphology radius="6" operator="erode" in="SourceAlpha" result="effect1_dropShadow_1_54"/>
<feOffset dy="8"/>
<feGaussianBlur stdDeviation="5"/>
<feComposite in2="hardAlpha" operator="out"/>
<feColorMatrix type="matrix" values="0 0 0 0 0.231373 0 0 0 0 0.509804 0 0 0 0 0.964706 0 0 0 0.3 0"/>
<feBlend mode="normal" in2="BackgroundImageFix" result="effect1_dropShadow_1_54"/>
<feColorMatrix in="SourceAlpha" type="matrix" values="0 0 0 0 0 0 0 0 0 0 0 0 0 0 0 0 0 0 127 0" result="hardAlpha"/>
<feMorphology radius="5" operator="erode" in="SourceAlpha" result="effect2_dropShadow_1_54"/>
<feOffset dy="20"/>
<feGaussianBlur stdDeviation="12.5"/>
<feComposite in2="hardAlpha" operator="out"/>
<feColorMatrix type="matrix" values="0 0 0 0 0.231373 0 0 0 0 0.509804 0 0 0 0 0.964706 0 0 0 0.3 0"/>
<feBlend mode="normal" in2="effect1_dropShadow_1_54" result="effect2_dropShadow_1_54"/>
<feColorMatrix in="SourceAlpha" type="matrix" values="0 0 0 0 0 0 0 0 0 0 0 0 0 0 0 0 0 0 127 0" result="hardAlpha"/>
<feMorphology radius="1" operator="dilate" in="SourceAlpha" result="effect3_dropShadow_1_54"/>
<feOffset/>
<feComposite in2="hardAlpha" operator="out"/>
<feColorMatrix type="matrix" values="0 0 0 0 0.231373 0 0 0 0 0.509804 0 0 0 0 0.964706 0 0 0 0.3 0"/>
<feBlend mode="normal" in2="effect2_dropShadow_1_54" result="effect3_dropShadow_1_54"/>
<feBlend mode="normal" in="SourceGraphic" in2="effect3_dropShadow_1_54" result="shape"/>
</filter>
<linearGradient id="paint0_linear_1_54" x1="20" y1="1.88" x2="68" y2="49.88" gradientUnits="userSpaceOnUse">
<stop stop-color="#7DD3FC" stop-opacity="0.5"/>
<stop offset="1" stop-color="#93C5FD" stop-opacity="0.5"/>
</linearGradient>
</defs>
</svg>
