<svg width="36" height="28" viewBox="0 0 36 28" fill="none" xmlns="http://www.w3.org/2000/svg">
<path fill-rule="evenodd" clip-rule="evenodd" d="M24.6056 0.343262H28.6573C32.2611 0.343262 35.187 3.26912 35.187 6.87298V21.12C35.187 24.7238 32.2611 27.6497 28.6573 27.6497H28.338C26.4831 27.3595 25.6787 26.8033 25.0573 26.3331L19.9059 22.0975C19.7768 21.9932 19.6158 21.9362 19.4499 21.9362C19.2839 21.9362 19.1229 21.9932 18.9939 22.0975L17.3203 23.4737L12.6069 19.5981C12.478 19.4936 12.317 19.4365 12.1511 19.4365C11.9851 19.4365 11.8242 19.4936 11.6953 19.5981L5.14714 25.3585C3.82929 26.4304 2.95757 26.2324 2.39229 26.1703C0.932143 24.972 0 23.154 0 21.12V6.87298C0 3.26912 2.92586 0.343262 6.53014 0.343262H10.5729L10.5656 0.359547L10.4293 0.756833L10.3869 0.893119L10.2034 1.70698L10.1781 1.84969L10.0976 2.66483L10.0869 2.88855L10.0851 2.96698L10.0929 3.34069L10.1113 3.55969L10.1567 3.90255L10.2146 4.21112L10.2831 4.49526L10.3723 4.80298L10.6037 5.4544L10.68 5.64983L11.0829 6.50098L11.2251 6.7624L11.691 7.56212L11.8693 7.85055L12.5194 8.80798L12.6133 8.93483L13.4593 10.0358L13.7327 10.3748L14.6987 11.5041L14.8971 11.7214L15.6934 12.5781L16.0089 12.9047L16.53 13.4224L16.4254 13.5098L16.3603 13.5685C16.1833 13.7335 16.0153 13.9088 15.858 14.0931C15.7824 14.1823 15.7104 14.2743 15.642 14.3691C15.5377 14.5139 15.4445 14.6664 15.363 14.8251C15.3214 14.9076 15.284 14.9921 15.2511 15.0784C15.1663 15.2989 15.1153 15.531 15.0999 15.7667L15.0969 15.9703C15.1043 16.2573 15.1627 16.5407 15.2696 16.8073C15.3778 17.0775 15.5357 17.325 15.735 17.5371C15.8799 17.6914 16.0449 17.826 16.2257 17.9365C16.3796 18.0308 16.5437 18.1084 16.7143 18.1675C17.0851 18.2932 17.4785 18.3379 17.868 18.2987H17.8701C18.2025 18.2665 18.5255 18.1706 18.8216 18.0163C18.9493 17.9485 19.071 17.8701 19.185 17.781C19.5114 17.5269 19.7644 17.1905 19.9179 16.8064C20.0379 16.5068 20.0966 16.1867 20.0914 15.8644L20.082 15.696C20.0602 15.4735 20.0072 15.2552 19.9243 15.0475C19.8884 14.9571 19.8476 14.8687 19.8021 14.7827C19.7178 14.6242 19.6218 14.4723 19.515 14.328C19.4661 14.262 19.4155 14.1972 19.3633 14.1338C19.1893 13.9262 19.0021 13.7301 18.8027 13.5467L18.6617 13.4267L18.9004 13.191L19.9264 12.1195L20.2813 11.73L20.8329 11.1094L21.1916 10.6898L21.7033 10.0667L22.0496 9.63126L22.5583 8.95112L22.815 8.59926L23.1793 8.05455L23.4827 7.5904L24.0544 6.59483L24.3814 5.94169L24.3909 5.92155L24.6411 5.31555C24.6444 5.30771 24.6473 5.2997 24.6497 5.29155L24.9193 4.45069L24.9476 4.32812L25.0646 3.65869L25.0873 3.4774L25.0941 3.3664L25.1023 2.94726L25.1001 2.86926L25.0787 2.49383L25.0521 2.2024L24.9193 1.36198C24.9171 1.35083 24.915 1.33969 24.9116 1.32855L24.741 0.707119L24.6823 0.534405L24.6056 0.343262ZM26.5316 18.1097C26.123 18.1155 25.7329 18.2803 25.4439 18.5692C25.155 18.8581 24.9902 19.2483 24.9844 19.6568C24.9904 20.0653 25.1553 20.4553 25.4442 20.7441C25.7331 21.0329 26.1231 21.1977 26.5316 21.2035C26.94 21.1976 27.33 21.0327 27.619 20.744C27.9079 20.4552 28.0729 20.0653 28.0791 19.6568C28.0733 19.2483 27.9083 18.8581 27.6194 18.5692C27.3304 18.2803 26.9401 18.1155 26.5316 18.1097Z" fill="url(#paint0_radial_1_331)"/>
<defs>
<radialGradient id="paint0_radial_1_331" cx="0" cy="0" r="1" gradientUnits="userSpaceOnUse" gradientTransform="translate(18.6827 13.8775) scale(25.4899)">
<stop stop-color="#BA7BF0"/>
<stop offset="0.45" stop-color="#996BEC"/>
<stop offset="1" stop-color="#5046E4"/>
</radialGradient>
</defs>
</svg>
