<svg width="129" height="24" viewBox="0 0 129 24" fill="none" xmlns="http://www.w3.org/2000/svg">
<path d="M59.7974 20.0899C59.7974 20.0899 62.8074 19.8319 62.8074 15.9447C62.8074 12.0573 59.1609 11.6962 59.1609 11.6962H52.5907V23.9599H55.8931V21.0016L58.7482 23.9599H63.633L59.7974 20.0899ZM70.9602 11.7821H67.6063C65.2153 11.7821 64.407 13.9495 64.407 14.9815V23.9599H67.7609V21.81H70.9087V23.9599H74.1593V14.9815C74.1593 12.3671 71.7858 11.7821 70.9602 11.7821ZM75.6901 11.7821H79.1817V23.9599H75.6901V11.7821ZM84.0837 20.8124V11.7821H80.6094V23.9599H88.7794V20.8124H84.0837ZM89.9317 20.8467V23.9599H95.556C96.7086 23.9599 98.6866 23.1172 98.7553 20.7608V19.5567C98.7553 17.5443 97.1043 16.3574 95.556 16.3574H92.7524V14.9127H98.3081V11.7821H92.9761C91.6002 11.7821 89.7599 12.9175 89.7599 15.033V16.1165C89.7599 18.2324 91.583 19.3159 92.9761 19.3159C96.846 19.3331 92.0475 19.3159 95.625 19.3159V20.8295L89.9317 20.8467ZM31.7787 23.9427H45.3665C45.3665 23.9427 42.7694 12.0919 51.3694 7.293C53.2441 6.38127 59.2127 2.97573 68.9822 10.1997C69.1772 10.0378 69.378 9.88292 69.5841 9.73527C69.5841 9.73527 60.6401 0.808364 50.6814 1.806C45.6761 2.25327 39.5185 6.81136 35.9066 12.8313C32.2946 18.8515 31.7787 23.9427 31.7787 23.9427ZM45.8825 20.5028C45.9169 21.4143 46.0031 22.1539 46.089 22.6699L48.153 23.4095C47.998 22.7386 47.8434 21.9818 47.74 21.1735L45.8825 20.5028ZM68.7929 14.6891H69.9454C70.8741 14.6891 70.8912 15.3597 70.8912 15.3597V18.3355H67.7437V15.3597C67.7437 15.3597 67.7437 14.6891 68.7929 14.6891ZM33.4125 15.6524L31.4345 14.9299C31.1078 15.6695 30.7467 16.5295 30.5746 16.9939L32.5526 17.7164C32.7763 17.1314 33.1374 16.2886 33.4125 15.6524ZM58.5246 17.5786H55.8931V14.775H58.5418C58.5418 14.775 59.2814 15.0502 59.2814 16.1684C59.2814 17.2863 58.5246 17.5786 58.5246 17.5786ZM46.1405 16.1337L47.5339 17.2347C47.6026 16.5638 47.7229 15.8929 47.895 15.2223L46.6565 14.2418C46.4329 14.8781 46.2783 15.5146 46.1405 16.1337ZM48.6346 10.5955L49.4601 11.8339C49.7525 11.4038 50.0966 11.0081 50.4749 10.6126L49.7009 9.44291C49.3144 9.79709 48.9577 10.1826 48.6346 10.5955ZM38.6071 7.96364L37.3858 6.89727C36.9386 7.32736 36.5085 7.75718 36.113 8.18727L37.4374 9.32264C37.8037 8.84982 38.1941 8.39621 38.6071 7.96364ZM52.9174 7.37891L53.3129 8.56582C53.8117 8.325 54.3105 8.11855 54.8093 7.96364L54.431 6.82855C53.9152 6.97921 53.4096 7.16305 52.9174 7.37891ZM58.4559 6.41564L58.3869 7.49918C58.9547 7.51664 59.5222 7.58536 60.0898 7.70564L60.1585 6.63927C59.5969 6.5248 59.028 6.45007 58.4559 6.41564ZM45.1085 2.85518L44.3346 1.66855C43.8805 1.90233 43.4332 2.14889 42.993 2.40791L43.7842 3.612C44.2315 3.33682 44.6613 3.07882 45.1085 2.85518ZM60.0898 2.76927L60.1585 1.61673C60.0039 1.53082 59.5738 1.32436 58.4902 1.01482L58.4212 2.14991C58.9891 2.33918 59.5394 2.54564 60.0898 2.76927ZM52.0919 1.04918H52.2637L51.9198 0C51.3866 0 50.8363 0.0343636 50.2685 0.103091L50.5955 1.11791C51.0943 1.06636 51.5931 1.04918 52.0919 1.04918Z" fill="#CC0000"/>
</svg>
