<svg width="60" height="22" viewBox="0 0 60 22" fill="none" xmlns="http://www.w3.org/2000/svg">
<path d="M36.953 14.9159C36.6159 15.5956 36.2152 16.2419 35.7563 16.8461C33.7051 19.5523 31.0272 21.2332 27.6374 21.6889C24.8455 22.0594 22.253 21.518 19.9741 19.8088C17.8658 18.2133 16.6694 16.1053 16.356 13.4845C15.9858 10.3792 16.8974 7.58758 18.7774 5.13762C20.8003 2.48826 23.478 0.807369 26.7541 0.209157C29.432 -0.275077 31.9959 0.0383056 34.3034 1.60499C35.8134 2.60201 36.8958 3.96952 37.608 5.62186C37.7789 5.87814 37.6649 6.02067 37.3232 6.10609C35.5283 6.56201 34.3034 6.90371 32.5373 7.35962C32.1099 7.4736 32.0814 7.50192 31.7111 7.0748C31.2837 6.59033 30.9704 6.27694 30.3721 5.99211C28.5773 5.10907 26.8395 5.36535 25.2157 6.41948C23.2785 7.67301 22.2815 9.52475 22.3101 11.8322C22.3386 14.1113 23.9053 15.9913 26.1559 16.3047C28.093 16.5612 29.7168 15.8774 30.9989 14.4247C31.2552 14.1113 31.4831 13.7693 31.768 13.3705H26.2698C25.6716 13.3705 25.5291 13.0003 25.7285 12.5158C26.099 11.6328 26.7826 10.1513 27.1814 9.41077C27.2669 9.23969 27.4663 8.95486 27.8936 8.95486H37.0615C37.4732 7.65031 38.1414 6.41784 39.0324 5.25137C41.1121 2.51658 43.619 1.0922 47.0091 0.493987C49.9147 -0.0188007 52.6497 0.266029 55.128 1.94692C57.3785 3.48528 58.7746 5.56475 59.1449 8.29977C59.6291 12.1456 58.5181 15.2792 55.8687 17.9571C53.9887 19.8657 51.681 21.0623 49.0317 21.6035C48.2626 21.746 47.4933 21.7745 46.7525 21.86C44.1603 21.8029 41.7958 21.0623 39.8015 19.3529C38.3991 18.1408 37.433 16.6506 36.953 14.9159ZM53.5328 10.3509C53.5042 9.98043 53.5042 9.6956 53.4473 9.41077C52.9345 6.59033 50.3421 4.99509 47.6358 5.62186C44.9865 6.22007 43.277 7.90073 42.6505 10.5786C42.1377 12.8009 43.2201 15.0512 45.2713 15.963C46.8382 16.6467 48.4049 16.5612 49.9147 15.7919C52.1652 14.6241 53.3902 12.8009 53.5328 10.3509ZM7.75263 11.8607C7.63866 11.8607 7.61034 11.7753 7.66721 11.6896L8.06602 10.9775C8.12312 10.892 8.2371 10.8066 8.35108 10.8066H14.0486C14.1626 10.8066 14.2195 10.892 14.2195 11.006L14.1626 11.6896C14.1626 11.8036 14.0486 11.8891 13.9632 11.8891L7.75263 11.8607ZM0.858677 9.23969C0.744699 9.23969 0.716145 9.18282 0.773252 9.09739L1.37146 8.32809C1.42834 8.24267 1.57087 8.1858 1.68485 8.1858H14.6754C14.7891 8.1858 14.8462 8.27122 14.8177 8.35665L14.5897 9.04028C14.5614 9.15426 14.4474 9.21137 14.3334 9.21137L0.858677 9.23969ZM5.16038 6.61888C5.0464 6.61888 5.01785 6.56201 5.07495 6.47635L5.67317 5.70728C5.73004 5.62186 5.87257 5.56475 5.98655 5.56475H16.1566C16.2706 5.56475 16.2992 5.65041 16.2421 5.73584L15.7578 6.47635C15.701 6.56201 15.5584 6.64743 15.473 6.64743L5.16038 6.61888Z" fill="#00ACD7"/>
</svg>
