<svg width="55" height="23" viewBox="0 0 55 23" fill="none" xmlns="http://www.w3.org/2000/svg">
<path d="M12.8793 3.98145L12.5851 3.33709C12.4165 2.97218 12.1201 2.68166 11.7519 2.52042L11.1002 2.24545L11.7427 1.95122C12.1103 1.78441 12.4027 1.48744 12.5622 1.11622L12.8426 0.467285L13.1378 1.10706C13.3037 1.4746 13.6025 1.76608 13.9747 1.92373L14.6218 2.20328L13.9802 2.49659C13.6126 2.66341 13.3202 2.96129 13.1598 3.33159L12.8793 3.98145ZM41.3401 3.98053L41.0467 3.33709C40.8772 2.97127 40.579 2.68059 40.209 2.52042L39.5573 2.24545L40.2044 1.95122C40.5701 1.78257 40.8625 1.4856 41.0238 1.11622L41.3043 0.467285L41.594 1.10706C41.7599 1.4746 42.0596 1.76608 42.4308 1.92373L43.0825 2.20328L42.44 2.49659C42.0725 2.66333 41.7803 2.96103 41.6205 3.33159L41.3401 3.98053Z" fill="#00A367"/>
<path d="M23.1719 22.1866C22.4918 22.1866 21.8144 22.138 21.1407 22.0418C16.3789 21.3525 12.6584 18.403 11.6584 14.5277C11.4231 13.2064 11.3364 11.8629 11.3999 10.5222V5.20426H14.2515V10.5452C14.2026 11.6394 14.2591 12.7358 14.4201 13.8192C15.1296 16.5836 17.9326 18.7091 21.5486 19.2316C24.3232 19.633 27.8851 19.0464 29.623 16.2142L30.0758 15.3343C31.5012 12.4388 34.6286 12.4113 36.3042 12.3939H37.3446C38.0567 12.2841 38.7066 11.9243 39.1775 11.379C39.6485 10.8336 39.9099 10.1383 39.9147 9.41777V5.22259H42.7663V9.41777C42.7639 10.8428 42.2418 12.2181 41.2979 13.2857C40.3523 14.3559 39.0499 15.0458 37.6333 15.227H36.329C34.0658 15.249 33.1208 15.5882 32.6313 16.5799L32.1107 17.6175C30.3499 20.5084 27.0373 22.1857 23.1719 22.1866ZM25.436 1.63419V0.513216H28.2784V11.5772C28.2932 12.5479 28.081 13.5087 27.6587 14.3829C27.2539 15.2051 26.6101 15.8859 25.8118 16.3361C24.8992 16.8314 23.8716 17.0759 22.8337 17.0446C21.4274 17.1112 20.0394 16.7045 18.8914 15.8897C17.8942 15.1183 17.2432 13.9833 17.0811 12.733H19.8785C20.0225 13.275 20.3587 13.7461 20.8245 14.0584C21.3644 14.4001 21.9965 14.5672 22.6348 14.5369C23.0058 14.5535 23.3763 14.4966 23.7252 14.3695C24.0741 14.2424 24.3945 14.0476 24.6678 13.7963C24.9464 13.4949 25.1591 13.1387 25.2923 12.7504C25.4255 12.3622 25.4763 11.9504 25.4415 11.5415V9.34536C25.1648 10.0851 24.659 10.7172 23.9978 11.1492C23.2708 11.6136 22.421 11.8489 21.5587 11.8247C20.6593 11.8374 19.774 11.6004 19.0013 11.14C18.226 10.6615 17.6075 9.9666 17.2222 9.14097C16.7987 8.1738 16.5801 7.12944 16.5801 6.07364C16.5801 5.01784 16.7987 3.97347 17.2222 3.00631C17.6072 2.18189 18.2259 1.48869 19.0013 1.01275C19.7731 0.550012 20.659 0.312519 21.5587 0.327151C22.5046 0.372063 24.6797 0.372063 25.436 1.63419V1.63694L25.4369 1.63511L25.436 1.63419ZM53.7482 6.85044C53.3273 6.40854 52.8009 6.08111 52.2184 5.89903C51.4772 5.67807 50.7208 5.51202 49.9553 5.40224C49.2564 5.30237 48.5694 5.13194 47.9048 4.89354C47.7123 4.83324 47.5441 4.71316 47.4245 4.55074C47.3064 4.38798 47.2431 4.19183 47.2439 3.99071C47.2475 3.79173 47.3071 3.59778 47.4159 3.43112C47.5247 3.26446 47.6783 3.13184 47.859 3.04847C48.4229 2.78034 49.0449 2.65775 49.6684 2.69192C50.8338 2.67591 51.9818 2.97518 52.9911 3.55809L54.0324 1.50587C53.4232 1.16179 52.7633 0.916466 52.0772 0.779024C51.2948 0.600312 50.4948 0.509619 49.6922 0.508634C48.3784 0.440539 47.0761 0.784368 45.9671 1.49212C45.5384 1.78146 45.1893 2.17392 44.952 2.63343C44.7146 3.09293 44.5965 3.60474 44.6087 4.12178C44.5537 4.82755 44.7737 5.52781 45.2247 6.07501C45.649 6.53543 46.188 6.87484 46.7866 7.0585C47.551 7.28306 48.331 7.44896 49.1221 7.55437C49.7971 7.64235 50.4624 7.79333 51.1093 8.00532C51.2907 8.05811 51.4495 8.16947 51.5609 8.32202C51.6724 8.47457 51.7301 8.65973 51.7253 8.84858C51.7253 9.70283 50.915 10.129 49.2944 10.1254C47.8227 10.1585 46.3588 9.90281 44.9854 9.37286V11.6276C46.3072 12.1208 47.7123 12.3554 49.1221 12.3169C50.7436 12.3169 52.0241 11.9943 52.9654 11.3472C53.4027 11.0709 53.7617 10.6869 54.0081 10.2321C54.2545 9.77725 54.3799 9.26679 54.3724 8.74959C54.4193 8.05944 54.1954 7.3782 53.7482 6.85044ZM5.98273 5.78996V2.84041H8.78023V0.432558H0.632481V2.84041H3.07158V5.77712C3.07158 8.78075 4.3475 12.2857 8.7784 12.2857V9.95397C6.51529 9.9668 5.98273 8.22622 5.98273 5.78996ZM33.4563 1.92108V0.460055H30.591V11.1272C30.591 11.1694 30.602 11.2097 30.6212 11.2473C30.641 11.2842 30.6701 11.3153 30.7057 11.3375C30.7412 11.3597 30.7819 11.3722 30.8238 11.3737C30.8654 11.376 30.9068 11.3671 30.9439 11.3481C31.6826 11.0043 32.4591 10.7484 33.2574 10.5855C33.3133 10.5745 33.3637 10.5447 33.4004 10.5012C33.4364 10.4575 33.4564 10.4029 33.4572 10.3463V6.28674C33.4572 4.34176 34.5131 3.36836 36.6259 3.36836H37.4591V0.315236C36.581 0.296904 34.2849 0.460055 33.4563 1.92108ZM20.2947 3.73407C19.7673 4.41689 19.4812 5.25531 19.4812 6.11809C19.4812 6.98087 19.7673 7.81929 20.2947 8.50211C20.8726 9.0584 21.6448 9.36725 22.447 9.36297C23.2491 9.35869 24.018 9.04162 24.5899 8.4792C25.1375 7.81167 25.4367 6.97502 25.4367 6.11167C25.4367 5.24833 25.1375 4.41168 24.5899 3.74415C24.3148 3.45564 23.9821 3.22821 23.6134 3.07662C23.2446 2.92503 22.8481 2.85267 22.4496 2.86424C22.0491 2.84675 21.6494 2.91544 21.2776 3.06565C20.9059 3.21587 20.5707 3.44412 20.2947 3.73499V3.73407Z" fill="#08181E"/>
</svg>
