<svg width="98" height="29" viewBox="0 0 98 29" fill="none" xmlns="http://www.w3.org/2000/svg">
<path d="M0.655029 24.7481C5.28818 29.3811 12.8 29.3811 17.4331 24.7481C22.0662 20.1149 22.0662 12.6031 17.4331 7.96997L15.3358 10.0672C18.8107 13.5421 18.8107 19.1759 15.3358 22.6508C11.861 26.1256 6.22714 26.1256 2.75227 22.6508L0.655029 24.7481Z" fill="#89DFBB"/>
<path d="M4.84956 20.5536C7.16612 22.8701 10.922 22.8701 13.2386 20.5536C15.5551 18.237 15.5551 14.4811 13.2386 12.1646L11.1414 14.2618C12.2996 15.4201 12.2996 17.298 11.1414 18.4563C9.98302 19.6146 8.10509 19.6146 6.94681 18.4563L4.84956 20.5536Z" fill="#89DFBB"/>
<path d="M21.6275 3.77537C16.9944 -0.857742 9.4826 -0.857742 4.84949 3.77537C0.21634 8.40852 0.21634 15.9203 4.84949 20.5535L6.94669 18.4562C3.47191 14.9813 3.47191 9.34749 6.94669 5.87267C10.4216 2.3978 16.0554 2.3978 19.5302 5.87267L21.6275 3.77537Z" fill="#04C98D"/>
<path d="M17.4331 7.97007C15.1165 5.65353 11.3605 5.65353 9.04399 7.97007C6.72739 10.2867 6.72739 14.0425 9.04399 16.3591L11.1412 14.2618C9.98296 13.1036 9.98296 11.2256 11.1412 10.0673C12.2995 8.90904 14.1774 8.90904 15.3358 10.0673L17.4331 7.97007Z" fill="#04C98D"/>
<path d="M35.5165 15.9215C35.5165 17.4003 34.4611 18.1334 33.45 18.1334C32.3504 18.1334 31.6173 17.3561 31.6173 16.1238V10.2972H29.3296V16.4777C29.3296 18.8096 30.6568 20.1304 32.5653 20.1304C34.0188 20.1304 35.0425 19.3657 35.4849 18.2787H35.586V20.004H37.8042V10.2972H35.5165V15.9215ZM39.8007 23.644H42.0884V18.4746H42.1831C42.5434 19.1824 43.2954 20.1746 44.9637 20.1746C47.2515 20.1746 48.964 18.3609 48.964 15.1632C48.964 11.9276 47.2009 10.1708 44.9575 10.1708C43.2448 10.1708 42.5308 11.2008 42.1831 11.9023H42.0504V10.2972H39.8007V23.644ZM42.0441 15.1506C42.0441 13.2673 42.853 12.0477 44.3255 12.0477C45.8485 12.0477 46.6321 13.3432 46.6321 15.1506C46.6321 16.9706 45.8359 18.2977 44.3255 18.2977C42.8657 18.2977 42.0441 17.0338 42.0441 15.1506ZM58.2391 12.8628C57.9231 11.2198 56.6086 10.1708 54.3336 10.1708C51.9954 10.1708 50.4029 11.3209 50.4092 13.1157C50.4029 14.5312 51.275 15.4666 53.1392 15.852L54.7949 16.1996C55.686 16.3955 56.1031 16.7557 56.1031 17.3055C56.1031 17.9691 55.3827 18.4683 54.2957 18.4683C53.2466 18.4683 52.5642 18.0133 52.3682 17.1412L50.1375 17.3561C50.4218 19.1382 51.9195 20.1935 54.302 20.1935C56.7287 20.1935 58.4413 18.936 58.4476 17.0969C58.4413 15.713 57.5503 14.8662 55.7176 14.468L54.0619 14.1141C53.076 13.893 52.6842 13.5517 52.6905 12.9893C52.6842 12.3321 53.411 11.877 54.3652 11.877C55.4206 11.877 55.9767 12.4521 56.1536 13.0904L58.2391 12.8628ZM64.8249 10.2972H62.9107V7.97154H60.6227V10.2972H59.245V12.0666H60.6227V17.4635C60.6103 19.2899 61.9372 20.1872 63.6563 20.1367C64.307 20.1177 64.7555 19.9913 65.0023 19.9092L64.6167 18.1207C64.4903 18.1524 64.2311 18.2092 63.947 18.2092C63.3716 18.2092 62.9107 18.007 62.9107 17.0843V12.0666H64.8249V10.2972ZM69.176 20.1999C70.6987 20.1999 71.6087 19.4857 72.0257 18.6705H72.1016V20.004H74.3012V13.5075C74.3012 10.9417 72.209 10.1708 70.3576 10.1708C68.3164 10.1708 66.7492 11.0808 66.2432 12.8502L68.3793 13.1536C68.6071 12.49 69.2513 11.9213 70.3701 11.9213C71.4319 11.9213 72.0132 12.4648 72.0132 13.419V13.4569C72.0132 14.1141 71.3245 14.1457 69.612 14.329C67.7286 14.5312 65.9277 15.0937 65.9277 17.2802C65.9277 19.1887 67.324 20.1999 69.176 20.1999ZM69.7698 18.5188C68.8153 18.5188 68.1331 18.0828 68.1331 17.2423C68.1331 16.3639 68.8978 15.9973 69.9216 15.852C70.5219 15.7699 71.7226 15.6182 72.0198 15.378V16.5219C72.0198 17.6025 71.1472 18.5188 69.7698 18.5188ZM83.9175 12.8628C83.6013 11.2198 82.2868 10.1708 80.0119 10.1708C77.6735 10.1708 76.0808 11.3209 76.0873 13.1157C76.0808 14.5312 76.9533 15.4666 78.8172 15.852L80.4734 16.1996C81.3643 16.3955 81.7814 16.7557 81.7814 17.3055C81.7814 17.9691 81.0606 18.4683 79.9739 18.4683C78.9245 18.4683 78.2424 18.0133 78.0466 17.1412L75.8156 17.3561C76.0997 19.1382 77.5976 20.1935 79.9804 20.1935C82.4066 20.1935 84.1197 18.936 84.1257 17.0969C84.1197 15.713 83.2282 14.8662 81.3958 14.468L79.7402 14.1141C78.7543 13.893 78.3622 13.5517 78.3687 12.9893C78.3622 12.3321 79.0889 11.877 80.0433 11.877C81.0986 11.877 81.655 12.4521 81.8318 13.0904L83.9175 12.8628ZM87.9441 14.3163C87.9441 12.9134 88.8161 12.1045 90.0422 12.1045C91.2428 12.1045 91.9505 12.8692 91.9505 14.1774V20.004H94.2384V13.8235C94.2384 11.4789 92.9109 10.1708 90.8952 10.1708C89.4039 10.1708 88.456 10.8469 88.0069 11.9465H87.8936V7.06152H85.6561V20.004H87.9441V14.3163Z" fill="#050505"/>
</svg>
