<svg width="112" height="21" viewBox="0 0 112 21" fill="none" xmlns="http://www.w3.org/2000/svg">
<path d="M17.8037 15.2586C18.465 15.2588 19.0991 15.5216 19.5667 15.9893C20.0344 16.4569 20.2972 17.091 20.2974 17.7523C20.2971 18.4136 20.0342 19.0477 19.5666 19.5153C19.099 19.9829 18.4649 20.2457 17.8037 20.2461C17.1424 20.2457 16.5083 19.9829 16.0407 19.5153C15.5731 19.0477 15.3103 18.4136 15.3099 17.7523C15.3102 17.091 15.573 16.4569 16.0406 15.9893C16.5082 15.5216 17.1424 15.2588 17.8037 15.2586ZM2.93373 15.2586C3.59504 15.2588 4.22919 15.5216 4.69681 15.9893C5.16442 16.4569 5.42723 17.091 5.42746 17.7523C5.42711 18.4136 5.16427 19.0477 4.69668 19.5153C4.22909 19.9829 3.595 20.2457 2.93373 20.2461C2.27246 20.2457 1.63838 19.9829 1.17079 19.5153C0.703201 19.0477 0.440356 18.4136 0.440002 17.7523C0.440238 17.091 0.703045 16.4569 1.17066 15.9893C1.63827 15.5216 2.27243 15.2588 2.93373 15.2586ZM2.93373 0.25C3.59504 0.250236 4.22919 0.513043 4.69681 0.980657C5.16442 1.44827 5.42723 2.08242 5.42746 2.74373C5.42723 3.40504 5.16442 4.03919 4.69681 4.5068C4.22919 4.97442 3.59504 5.23723 2.93373 5.23746C2.27243 5.23723 1.63827 4.97442 1.17066 4.5068C0.703045 4.03919 0.440238 3.40504 0.440002 2.74373C0.440238 2.08242 0.703045 1.44827 1.17066 0.980657C1.63827 0.513043 2.27243 0.250236 2.93373 0.25ZM17.8037 0.25C18.465 0.250236 19.0991 0.513043 19.5667 0.980657C20.0344 1.44827 20.2972 2.08242 20.2974 2.74373C20.2972 3.40504 20.0344 4.03919 19.5667 4.5068C19.0991 4.97442 18.465 5.23723 17.8037 5.23746C17.1424 5.23723 16.5082 4.97442 16.0406 4.5068C15.573 4.03919 15.3102 3.40504 15.3099 2.74373C15.3102 2.08242 15.573 1.44827 16.0406 0.980657C16.5082 0.513043 17.1424 0.250236 17.8037 0.25ZM10.4149 0.25C11.0762 0.250236 11.7104 0.513043 12.178 0.980657C12.6456 1.44827 12.9084 2.08242 12.9087 2.74373C12.9084 3.40504 12.6456 4.03919 12.178 4.5068C11.7104 4.97442 11.0762 5.23723 10.4149 5.23746C9.75362 5.23723 9.11946 4.97442 8.65185 4.5068C8.18424 4.03919 7.92143 3.40504 7.92119 2.74373C7.92143 2.08242 8.18424 1.44827 8.65185 0.980657C9.11946 0.513043 9.75362 0.250236 10.4149 0.25Z" fill="black" fill-opacity="0.2"/>
<path d="M10.4149 15.2588C11.0762 15.2591 11.7104 15.5219 12.178 15.9895C12.6456 16.4571 12.9084 17.0913 12.9087 17.7526C12.9083 18.4138 12.6455 19.0479 12.1779 19.5155C11.7103 19.9831 11.0762 20.2459 10.4149 20.2463C9.75365 20.2459 9.11957 19.9831 8.65198 19.5155C8.18439 19.0479 7.92155 18.4138 7.92119 17.7526C7.92143 17.0913 8.18424 16.4571 8.65185 15.9895C9.11946 15.5219 9.75362 15.2591 10.4149 15.2588ZM35.2722 18.3059C35.9767 18.3059 36.5495 18.2397 37.2317 18.1077V15.553C36.8135 15.7073 36.3513 15.7513 35.9109 15.7513C34.8318 15.7513 34.4354 15.2228 34.4354 14.21V9.01317H37.2317V6.45855H34.4354V2.67107H31.3523V6.45855H29.3488V9.01317H31.3523V14.4962C31.3523 16.9184 32.6296 18.3059 35.2722 18.3059ZM65.3219 18.3059C68.7129 18.3059 70.4529 16.5219 70.4529 14.6504C70.4529 12.9549 69.5938 11.6998 66.7752 11.1931C64.7934 10.8407 63.5601 10.4003 63.5601 9.7176C63.5601 9.12339 64.265 8.70473 65.4539 8.70473C66.5112 8.70473 67.3921 9.05717 68.0525 9.82782L70.0125 8.17629C69.0214 6.94298 67.3921 6.23855 65.4539 6.23855C62.4815 6.23855 60.6318 7.82386 60.6318 9.7616C60.6318 11.8758 62.5695 12.8224 64.6615 13.1971C66.401 13.5051 67.3698 13.8357 67.3698 14.5842C67.3698 15.2228 66.6872 15.7513 65.3881 15.7513C64.1108 15.7513 63.1197 15.1571 62.6575 14.2762L60.0589 15.509C60.6975 17.0948 62.8779 18.3059 65.3219 18.3059ZM42.2668 18.3059C43.9183 18.3059 45.0192 17.7552 45.5698 16.8966C45.6138 17.2708 45.7458 17.7774 45.9222 18.0854H48.6969C48.5426 17.557 48.4324 16.7201 48.4324 16.1699V10.1363C48.4324 7.64786 46.6489 6.23855 43.6321 6.23855C41.3419 6.23855 39.5584 7.0972 38.5673 8.35229L40.329 10.0923C41.1219 9.21139 42.1348 8.74873 43.3676 8.74873C44.8649 8.74873 45.5258 9.25539 45.5258 10.0043C45.5258 10.6425 45.0854 11.0829 42.7072 11.0829C40.417 11.0829 38.1051 12.03 38.1051 14.6726C38.1051 17.1166 39.8664 18.3059 42.2668 18.3059ZM87.2321 18.3059C88.8837 18.3059 89.985 17.7552 90.5352 16.8966C90.5792 17.2708 90.7116 17.7774 90.8876 18.0854H93.6627C93.5085 17.557 93.3982 16.7201 93.3982 16.1699V10.1363C93.3982 7.64786 91.6143 6.23855 88.5974 6.23855C86.3073 6.23855 84.5237 7.0972 83.5327 8.35229L85.2944 10.0923C86.0873 9.21139 87.1001 8.74873 88.3334 8.74873C89.8308 8.74873 90.4912 9.25539 90.4912 10.0043C90.4912 10.6425 90.0507 11.0829 87.6726 11.0829C85.3824 11.0829 83.0704 12.03 83.0704 14.6726C83.0704 17.1166 84.8322 18.3059 87.2321 18.3059ZM77.3448 18.3059C79.5469 18.3059 81.1327 17.425 82.3216 15.4433L79.8554 14.1877C79.3927 15.1126 78.6443 15.7513 77.3448 15.7513C75.3852 15.7513 74.3279 14.166 74.3279 12.25C74.3279 10.3345 75.451 8.79273 77.3448 8.79273C78.5341 8.79273 79.327 9.43138 79.7892 10.4003L82.2776 9.07939C81.4407 7.25142 79.7892 6.23855 77.3448 6.23855C73.3151 6.23855 71.2453 9.18916 71.2453 12.25C71.2453 15.5753 73.7555 18.3059 77.3448 18.3059ZM105.691 18.3059C107.96 18.3059 109.788 17.4028 110.8 15.7953L108.466 14.298C107.85 15.2668 107.034 15.7953 105.691 15.7953C104.172 15.7953 103.071 14.9588 102.785 13.3291H111.549V12.25C111.549 9.18916 109.677 6.23855 105.67 6.23855C101.86 6.23855 99.7897 9.21139 99.7897 12.2722C99.7897 16.6321 103.071 18.3059 105.691 18.3059ZM55.8314 18.0854H58.914V2.45107H55.8314V18.0854ZM95.2098 18.0854H98.2924V2.45107H95.2098V18.0854ZM50.5026 18.0854H53.5852V6.45855H50.5026V18.0854ZM42.8832 15.9717C41.6943 15.9717 41.1437 15.465 41.1437 14.5624C41.1437 13.7695 41.8041 13.2411 42.9054 13.2411C44.6667 13.2411 45.1516 13.1309 45.5258 12.7567V13.7033C45.5258 14.9588 44.4689 15.9717 42.8832 15.9717ZM87.849 15.9717C86.6597 15.9717 86.109 15.465 86.109 14.5624C86.109 13.7695 86.7699 13.2411 87.8708 13.2411C89.6325 13.2411 90.117 13.1309 90.4912 12.7567V13.7033C90.4912 14.9588 89.4343 15.9717 87.849 15.9717ZM2.93373 7.68519C3.59504 7.68543 4.22919 7.94824 4.69681 8.41585C5.16442 8.88346 5.42723 9.51762 5.42746 10.1789C5.42723 10.8402 5.16442 11.4744 4.69681 11.942C4.22919 12.4096 3.59504 12.6724 2.93373 12.6727C2.27243 12.6724 1.63827 12.4096 1.17066 11.942C0.703045 11.4744 0.440238 10.8402 0.440002 10.1789C0.440238 9.51762 0.703045 8.88346 1.17066 8.41585C1.63827 7.94824 2.27243 7.68543 2.93373 7.68519ZM17.8037 7.68519C18.465 7.68543 19.0991 7.94824 19.5667 8.41585C20.0344 8.88346 20.2972 9.51762 20.2974 10.1789C20.2972 10.8402 20.0344 11.4744 19.5667 11.942C19.0991 12.4096 18.465 12.6724 17.8037 12.6727C17.1424 12.6724 16.5082 12.4096 16.0406 11.942C15.573 11.4744 15.3102 10.8402 15.3099 10.1789C15.3102 9.51762 15.573 8.88346 16.0406 8.41585C16.5082 7.94824 17.1424 7.68543 17.8037 7.68519ZM10.4149 7.68519C11.0762 7.68543 11.7104 7.94824 12.178 8.41585C12.6456 8.88346 12.9084 9.51762 12.9087 10.1789C12.9084 10.8402 12.6456 11.4744 12.178 11.942C11.7104 12.4096 11.0762 12.6724 10.4149 12.6727C9.75362 12.6724 9.11946 12.4096 8.65185 11.942C8.18424 11.4744 7.92143 10.8402 7.92119 10.1789C7.92143 9.51762 8.18424 8.88346 8.65185 8.41585C9.11946 7.94824 9.75362 7.68543 10.4149 7.68519ZM102.895 10.9069C103.38 9.43138 104.392 8.74873 105.736 8.74873C107.255 8.74873 108.18 9.65182 108.488 10.9069H102.895ZM50.4364 4.98347H53.6514V2.09863H50.4364V4.98347Z" fill="black"/>
</svg>
