<svg width="96" height="25" viewBox="0 0 96 25" fill="none" xmlns="http://www.w3.org/2000/svg">
<path d="M13.3836 23.6035V23.6082C13.3789 23.6082 13.3736 23.6082 13.3676 23.6068C13.3623 23.6079 13.357 23.6083 13.3516 23.6082V23.6035C12.9756 23.5049 11.0484 21.9477 10.6671 21.4937C10.3558 21.9724 9.8465 22.5156 9.8465 22.5156C8.4366 21.8004 6.63673 19.9352 6.29675 19.284C6.03544 18.782 5.36615 15.0131 5.03217 12.0528C4.93351 11.1782 4.86352 10.3743 4.84285 9.74571C4.81019 9.66838 3.08698 5.43152 13.3516 5.42285H13.3836C23.7422 5.43152 21.8917 9.74704 21.8917 9.74704C21.7997 12.5014 20.7771 18.6341 20.4378 19.284C20.0984 19.9352 18.2979 21.8004 16.888 22.5156C16.888 22.5156 16.3794 21.9724 16.0681 21.4937C15.6861 21.9477 13.7589 23.5049 13.3836 23.6035ZM87.0997 5.74415C91.9667 5.74415 95.0025 9.12378 95.0025 13.5266C95.0025 17.9308 91.9867 21.3964 87.2071 21.3964C82.4274 21.3964 79.3696 18.0175 79.3696 13.5919C79.3696 9.16577 82.5127 5.74415 87.0971 5.74415H87.0997ZM43.4155 15.0944V6.02545H47.0105V15.0951C47.0105 16.7956 47.8052 17.9728 49.5717 17.9728C51.3376 17.9728 52.0909 16.7729 52.0909 15.0731V6.02545H55.6853V15.0725C55.6853 18.7127 53.6174 21.3938 49.527 21.3938C45.436 21.3938 43.4135 18.8647 43.4135 15.0944H43.4155ZM73.6453 11.4549L75.5185 12.1954C77.4564 13.0007 78.5963 14.3099 78.5963 16.5543C78.5963 19.6066 76.4638 21.3938 73.4727 21.3938C69.2103 21.3938 68.4344 18.5814 68.5644 16.379H71.9661C71.9241 17.3389 72.2881 18.2768 73.4727 18.2768C74.2913 18.2768 74.8946 17.8181 74.8946 16.9482C74.8946 16.0783 74.2913 15.6837 73.3234 15.3124C72.5701 15.0078 71.8168 14.7238 70.9982 14.3099C69.4923 13.5246 68.6937 12.0435 68.6937 10.213C68.6937 7.57461 70.5869 5.74415 73.4954 5.74415C77.0051 5.74415 78.2744 7.77126 78.125 10.4523H74.8099C74.8326 9.51507 74.3586 8.86114 73.5174 8.86114C72.6774 8.86114 72.2908 9.36242 72.2908 9.99635C72.2908 10.6296 72.6347 11.0636 73.6473 11.4575L73.6453 11.4549ZM38.3018 9.42708V21.1125H34.7081V9.42774L30.7144 8.92913V6.02545H42.2762V8.92846L38.3018 9.42708ZM65.3766 14.2252L68.7784 21.1125H64.9246L61.9968 14.9211H61.0289V21.1125H57.4538V6.02878H62.5775C65.7006 6.02878 67.2718 7.6646 67.2718 10.5196C67.2718 12.1974 66.5838 13.4846 65.3766 14.2252ZM87.1871 17.9955C89.8135 17.9955 91.2354 16.0323 91.2354 13.5686C91.2354 11.1056 89.7289 9.14311 87.1671 9.14311C84.6052 9.14311 83.1413 11.1056 83.1413 13.5693C83.1413 16.0323 84.7132 17.9948 87.1897 17.9948L87.1871 17.9955ZM61.0262 9.16777V11.9588H62.2755C63.0941 11.9588 63.5681 11.3922 63.5681 10.5423C63.5681 9.69171 63.0714 9.16777 62.2755 9.16777H61.0262Z" fill="#147C69"/>
<path d="M13.3672 9.94358L20.7138 9.6936L20.7111 9.69427L20.2125 13.7512L17.4388 14.0005L17.6834 17.4287C17.6834 17.4287 16.0063 18.8279 13.3812 18.8379H13.3532C10.7275 18.8279 9.05038 17.4287 9.05038 17.4287L9.29502 14.0005L6.52199 13.7512L6.02272 9.69427L6.02005 9.6936L13.3672 9.94358Z" fill="#0B1F2A"/>
<path d="M22.6351 5.70195V0.251221C22.6351 0.251221 26.3548 4.3161 26.3548 7.99836L26.3528 7.99903L26.3535 7.9997L16.0929 11.512L16.4495 16.2994C15.6074 16.5147 14.7475 16.6537 13.8804 16.7147V16.7507C13.7097 16.7507 13.5391 16.7481 13.3691 16.7421C13.1978 16.7481 13.0264 16.7507 12.8545 16.7507V16.7147C11.9876 16.6537 11.1279 16.5147 10.286 16.2994L10.6419 11.512L0.382005 7.9997L0.380672 7.99836H0.380005C0.380005 4.3161 4.09974 0.251221 4.09974 0.251221V5.70128L6.1716 6.22789L7.36685 4.77672L8.38211 6.78916L13.3671 8.05436L18.3527 6.7885L19.368 4.77672L20.5639 6.22723L22.6351 5.70195Z" fill="#1EBCA1"/>
</svg>
