<svg width="123" height="24" viewBox="0 0 123 24" fill="none" xmlns="http://www.w3.org/2000/svg">
<path d="M57.5997 21.1888V16.1669C58.1056 16.8633 59.1591 17.4329 60.5926 17.4329C63.5219 17.4329 65.4814 15.1119 65.4814 11.9682C65.4814 8.88767 63.7325 6.56674 60.6979 6.56674C59.1385 6.56674 57.9792 7.26316 57.5154 8.06489V6.79888H54.7973V21.1888H57.5997ZM31.9319 14.2891C32.0582 15.4709 33.1327 17.496 36.252 17.496C38.9707 17.496 40.2774 15.7662 40.2774 14.0781C40.2774 12.5589 39.2445 11.3144 37.2002 10.8922L35.725 10.5758C35.1559 10.4701 34.7769 10.1537 34.7769 9.64728C34.7769 9.05664 35.367 8.61341 36.1046 8.61341C37.2844 8.61341 37.7272 9.39408 37.8114 10.0063L40.1505 9.4788C40.0242 8.36021 39.0339 6.4825 36.0836 6.4825C33.8493 6.4825 32.2056 8.02277 32.2056 9.87942C32.2056 11.3355 33.1117 12.5378 35.1138 12.981L36.4837 13.2974C37.2844 13.4664 37.6008 13.8459 37.6008 14.3102C37.6008 14.8587 37.1581 15.3441 36.231 15.3441C35.0085 15.3441 34.3973 14.5845 34.3341 13.7617L31.9319 14.2891ZM102.441 14.2891C102.567 15.4709 103.642 17.496 106.761 17.496C109.479 17.496 110.786 15.7662 110.786 14.0781C110.786 12.5589 109.754 11.3144 107.709 10.8922L106.234 10.5758C105.665 10.4701 105.286 10.1537 105.286 9.64728C105.286 9.05664 105.876 8.61341 106.613 8.61341C107.794 8.61341 108.236 9.39408 108.321 10.0063L110.66 9.4788C110.533 8.36021 109.543 6.4825 106.592 6.4825C104.359 6.4825 102.715 8.02277 102.715 9.87942C102.715 11.3355 103.62 12.5378 105.623 12.981L106.993 13.2974C107.794 13.4664 108.11 13.8459 108.11 14.3102C108.11 14.8587 107.667 15.3441 106.74 15.3441C105.517 15.3441 104.907 14.5845 104.843 13.7617L102.441 14.2891ZM119.953 13.5085C119.616 14.4371 118.9 15.0909 117.593 15.0909C116.202 15.0909 115.043 14.0991 114.98 12.7278H122.398C122.398 12.6857 122.44 12.2635 122.44 11.8629C122.44 8.52917 120.523 6.4825 117.319 6.4825C114.664 6.4825 112.219 8.63447 112.219 11.9472C112.219 15.4499 114.727 17.496 117.572 17.496C120.122 17.496 121.766 15.9984 122.293 14.2049L119.953 13.5085ZM67.0687 14.3523C67.0687 15.9773 68.4175 17.475 70.6302 17.475C72.1686 17.475 73.1589 16.758 73.6859 15.9347C73.6859 16.3358 73.728 16.9054 73.7912 17.1797H76.3624C76.2992 16.8212 76.236 16.0826 76.236 15.5341V10.4279C76.236 8.33915 75.0136 6.4825 71.7263 6.4825C68.9445 6.4825 67.4478 8.27597 67.2793 9.90048L69.7663 10.4279C69.8505 9.52092 70.5249 8.74026 71.7469 8.74026C72.9272 8.74026 73.4963 9.35196 73.4963 10.0905C73.4963 10.449 73.3068 10.7443 72.7166 10.829L70.1669 11.2086C68.4386 11.4618 67.0687 12.4957 67.0687 14.3523ZM91.3334 14.3523C91.3334 15.9773 92.6817 17.475 94.8949 17.475C96.4332 17.475 97.424 16.758 97.9505 15.9347C97.9505 16.3358 97.9926 16.9054 98.0558 17.1797H100.627C100.564 16.8212 100.501 16.0826 100.501 15.5341V10.4279C100.501 8.33915 99.2783 6.4825 95.9905 6.4825C93.2087 6.4825 91.7124 8.27597 91.544 9.90048L94.0305 10.4279C94.1152 9.52092 94.7896 8.74026 96.0116 8.74026C97.1919 8.74026 97.761 9.35196 97.761 10.0905C97.761 10.449 97.5714 10.7443 96.9813 10.829L94.4311 11.2086C92.7032 11.4618 91.3334 12.4957 91.3334 14.3523ZM49.2346 17.1797H51.9111C51.8416 16.5562 51.8065 15.9293 51.8058 15.302V6.79888H49.0024V12.8331C49.0024 14.0359 48.2859 14.8798 47.0429 14.8798C45.7362 14.8798 45.1461 13.9517 45.1461 12.791V6.79888H42.3432V13.3611C42.3432 15.6183 43.7762 17.4539 46.2843 17.4539C47.3799 17.4539 48.5812 17.0322 49.1503 16.0616C49.1503 16.4837 49.1925 16.9686 49.2346 17.1797ZM81.7801 17.1797V15.9137C82.3277 16.8001 83.4237 17.4329 84.8568 17.4329C87.8076 17.4329 89.7466 15.0909 89.7466 11.9472C89.7466 8.86661 87.9971 6.52462 84.9621 6.52462C83.4238 6.52462 82.2855 7.19999 81.8222 7.93853V1.90381H79.0615V17.1797H81.7801ZM71.2204 15.3862C70.3143 15.3862 69.8716 14.7956 69.8716 14.1838C69.8716 13.3821 70.4402 12.981 71.1572 12.8757L73.4963 12.5167V12.981C73.4963 14.8166 72.4007 15.3862 71.2204 15.3862ZM95.4851 15.3862C94.579 15.3862 94.1358 14.7956 94.1358 14.1838C94.1358 13.3821 94.7049 12.981 95.4219 12.8757L97.761 12.5167V12.981C97.761 14.8166 96.6649 15.3862 95.4851 15.3862ZM62.7206 11.9893C62.7206 13.8464 61.5829 14.9224 60.1499 14.9224C58.7168 14.9224 57.5576 13.8249 57.5576 11.9893C57.5576 10.1537 58.7168 9.0777 60.1499 9.0777C61.5829 9.0777 62.7206 10.1537 62.7206 11.9893ZM86.9432 11.9682C86.9432 13.8675 85.8055 14.9224 84.3719 14.9224C82.9599 14.9224 81.7801 13.8464 81.7801 11.9682C81.7801 10.0694 82.9599 9.03558 84.3719 9.03558C85.8055 9.03558 86.9432 10.0694 86.9432 11.9682ZM115.043 10.808C115.106 9.85836 115.907 8.76132 117.361 8.76132C118.963 8.76132 119.637 9.77412 119.68 10.808H115.043Z" fill="#1F1F1F"/>
<path d="M13.4334 23.47C12.8305 24.2296 11.6071 23.8138 11.5929 22.8436L11.3804 8.65747H20.9193C22.6471 8.65747 23.6105 10.6527 22.5359 12.0059L13.4334 23.47Z" fill="url(#paint0_linear_1_159)"/>
<path d="M13.4334 23.47C12.8305 24.2296 11.6071 23.8138 11.5929 22.8436L11.3804 8.65747H20.9193C22.6471 8.65747 23.6105 10.6527 22.5359 12.0059L13.4334 23.47Z" fill="url(#paint1_linear_1_159)"/>
<path d="M9.55416 0.643237C10.1575 -0.116369 11.3804 0.29992 11.3951 1.26963L11.4882 15.4563H2.06879C0.34095 15.4563 -0.622882 13.4605 0.451634 12.1074L9.55416 0.643237Z" fill="#3ECF8E"/>
<defs>
<linearGradient id="paint0_linear_1_159" x1="11.3804" y1="11.8027" x2="19.8582" y2="15.3583" gradientUnits="userSpaceOnUse">
<stop stop-color="#249361"/>
<stop offset="1" stop-color="#3ECF8E"/>
</linearGradient>
<linearGradient id="paint1_linear_1_159" x1="7.62164" y1="6.65652" x2="11.4879" y2="13.9347" gradientUnits="userSpaceOnUse">
<stop stop-opacity="0.2"/>
<stop offset="1" stop-opacity="0"/>
</linearGradient>
</defs>
</svg>
