<svg width="81" height="30" viewBox="0 0 81 30" fill="none" xmlns="http://www.w3.org/2000/svg">
<path d="M14.4845 1.46471C14.3691 1.47438 14.2539 1.48566 14.1389 1.49854L13.1256 0.414395C13.0759 0.361563 13.0136 0.322244 12.9445 0.300141C12.8754 0.278037 12.8019 0.273877 12.7307 0.288051C12.6596 0.302225 12.5933 0.334267 12.538 0.38116C12.4826 0.428053 12.4402 0.488255 12.4145 0.556097L11.894 1.94471C11.7832 1.97695 11.6725 2.01046 11.5627 2.04557L10.356 1.17812C10.2971 1.13569 10.2283 1.10903 10.1561 1.10067C10.0839 1.0923 10.0108 1.10251 9.94375 1.13033C9.87664 1.15814 9.81776 1.20263 9.77268 1.25959C9.7276 1.31655 9.69781 1.38408 9.68615 1.45578L9.44616 2.92578C9.34467 2.97844 9.24382 3.03269 9.14393 3.08822L7.78725 2.47003C7.73183 2.44481 7.67165 2.43175 7.61076 2.43174C7.55359 2.43205 7.49705 2.4438 7.44448 2.46628C7.39191 2.48876 7.34436 2.52153 7.30464 2.56265C7.26491 2.60377 7.23381 2.65242 7.21316 2.70574C7.19251 2.75906 7.18272 2.81597 7.18438 2.87312L7.23704 4.36705C7.1496 4.43727 7.06343 4.50812 6.9779 4.58025L5.52164 4.23716C5.45097 4.22085 5.37731 4.22278 5.30759 4.24278C5.23786 4.26278 5.17437 4.30018 5.12309 4.35147C5.0718 4.40276 5.0344 4.46625 5.0144 4.53597C4.9944 4.60569 4.99247 4.67936 5.00878 4.75003L5.35186 6.20631C5.27973 6.29184 5.20888 6.37833 5.13867 6.46546L3.64476 6.4128L3.62848 6.41248C3.51573 6.41298 3.40773 6.458 3.328 6.53773C3.24826 6.61747 3.20325 6.72547 3.20274 6.83822C3.20274 6.8995 3.21615 6.95982 3.24168 7.01567L3.85986 8.37237C3.80465 8.47195 3.7504 8.5728 3.69774 8.67461L2.22744 8.91461C2.15598 8.92667 2.08874 8.95668 2.03205 9.00183C1.97536 9.04698 1.93106 9.10579 1.90331 9.17275C1.87556 9.2397 1.86526 9.3126 1.87339 9.38462C1.88152 9.45664 1.90781 9.52542 1.94979 9.5845L2.81722 10.7912C2.78211 10.9016 2.7486 11.0117 2.71669 11.1225L1.32777 11.643C1.25987 11.6686 1.1996 11.711 1.15266 11.7663C1.10571 11.8217 1.07363 11.888 1.05945 11.9592C1.04527 12.0303 1.04946 12.1039 1.07161 12.173C1.09377 12.2421 1.13316 12.3044 1.18607 12.3541L2.27021 13.3677C2.25744 13.4823 2.24627 13.5975 2.23638 13.713L0.974162 14.4946C0.912408 14.5329 0.861447 14.5863 0.826106 14.6497C0.790766 14.7132 0.772217 14.7847 0.772217 14.8573C0.772217 14.93 0.790766 15.0014 0.826106 15.0649C0.861447 15.1284 0.912408 15.1818 0.974162 15.22L2.2367 16.0016C2.24627 16.1175 2.25776 16.2324 2.27053 16.3473L1.18607 17.3609C1.13281 17.4103 1.09311 17.4726 1.07074 17.5417C1.04837 17.6109 1.04409 17.6846 1.0583 17.7559C1.0725 17.8271 1.10473 17.8936 1.15191 17.9488C1.19908 18.0041 1.25963 18.0464 1.32777 18.0716L2.71669 18.5922C2.74892 18.7032 2.78243 18.8137 2.81754 18.9234L1.94979 20.1305C1.90718 20.1894 1.88037 20.2582 1.87191 20.3304C1.86345 20.4026 1.87362 20.4758 1.90146 20.543C1.9293 20.6101 1.97387 20.6691 2.03094 20.7141C2.088 20.7592 2.15565 20.7889 2.22744 20.8004L3.69806 21.0404C3.75103 21.1415 3.80497 21.2421 3.86018 21.3416L3.24168 22.699C3.21207 22.764 3.19925 22.8353 3.20441 22.9066C3.20956 22.9778 3.23252 23.0466 3.27118 23.1066C3.30985 23.1667 3.36297 23.216 3.42568 23.2502C3.48838 23.2844 3.55867 23.3022 3.63008 23.3022H3.64476L5.13963 23.2492C5.20952 23.3363 5.28037 23.4225 5.35218 23.5077L5.00878 24.9646C4.99247 25.0353 4.9944 25.1089 5.0144 25.1787C5.0344 25.2484 5.0718 25.3119 5.12309 25.3632C5.17437 25.4145 5.23786 25.4519 5.30759 25.4719C5.37731 25.4919 5.45097 25.4938 5.52164 25.4775L6.97886 25.1344C7.06407 25.2062 7.15024 25.2771 7.23704 25.3466L7.18438 26.8415L7.18407 26.8581C7.18465 26.9708 7.22966 27.0786 7.30932 27.1583C7.38897 27.2379 7.49684 27.283 7.60949 27.2835C7.67076 27.2835 7.7314 27.2701 7.78725 27.2446L9.14457 26.6261C9.24446 26.6816 9.34499 26.7356 9.44616 26.7882L9.68615 28.2589C9.69806 28.3304 9.72798 28.3978 9.7731 28.4546C9.81822 28.5114 9.87706 28.5557 9.94407 28.5835C10.0111 28.6113 10.0841 28.6216 10.1561 28.6133C10.2282 28.6051 10.297 28.5787 10.356 28.5365L11.563 27.6691C11.6728 27.7039 11.7832 27.7374 11.894 27.7696L12.4145 29.1589C12.44 29.2268 12.4825 29.2871 12.5378 29.3341C12.5931 29.381 12.6595 29.4131 12.7307 29.4273C12.8019 29.4414 12.8755 29.4372 12.9446 29.415C13.0137 29.3927 13.076 29.3533 13.1256 29.3002L14.1392 28.2161C14.2537 28.2289 14.369 28.24 14.4845 28.2499L15.2661 29.5122C15.3043 29.574 15.3577 29.625 15.4211 29.6604C15.4846 29.6958 15.5561 29.7144 15.6288 29.7144C15.7015 29.7144 15.7729 29.6958 15.8364 29.6604C15.8999 29.625 15.9533 29.574 15.9915 29.5122L16.7731 28.2499C16.8889 28.24 17.0038 28.2289 17.1187 28.2161L18.1323 29.3002C18.2328 29.4081 18.3822 29.4563 18.5271 29.4273C18.672 29.3985 18.7913 29.2971 18.843 29.1589L19.3636 27.7696C19.4746 27.7374 19.585 27.7039 19.6948 27.6691L20.9018 28.5365C20.9608 28.5788 21.0296 28.6053 21.1017 28.6135C21.1738 28.6218 21.2469 28.6116 21.3139 28.5838C21.3809 28.556 21.4398 28.5116 21.4849 28.4547C21.53 28.3979 21.5599 28.3305 21.5717 28.2589L21.8117 26.7882C21.9129 26.7352 22.0134 26.6813 22.113 26.6261L23.4703 27.2446C23.5258 27.2701 23.5865 27.2832 23.6477 27.2832C23.8814 27.2832 24.0738 27.0908 24.0738 26.8572L24.0735 26.8415L24.0205 25.3466C24.1076 25.2771 24.1938 25.2062 24.279 25.1344L25.7359 25.4775C25.8066 25.4938 25.8802 25.4919 25.95 25.4719C26.0197 25.4519 26.0832 25.4145 26.1345 25.3632C26.1858 25.3119 26.2232 25.2484 26.2432 25.1787C26.2631 25.1089 26.2651 25.0353 26.2488 24.9646L25.9057 23.5077C25.9775 23.4225 26.0483 23.3363 26.1179 23.2492L27.6128 23.3022L27.6278 23.3025C27.8617 23.3025 28.0542 23.1097 28.0542 22.8761C28.0542 22.8148 28.0411 22.7545 28.0159 22.699L27.3974 21.3416C27.4529 21.2421 27.5068 21.1415 27.5595 21.0404L29.0301 20.8004C29.1017 20.7885 29.1691 20.7587 29.226 20.7135C29.2828 20.6684 29.3272 20.6096 29.355 20.5425C29.3828 20.4755 29.3931 20.4025 29.3848 20.3304C29.3765 20.2583 29.35 20.1895 29.3078 20.1305L28.4403 18.9234C28.4751 18.8133 28.5086 18.7032 28.5409 18.5922L29.9301 18.0716C29.9982 18.0464 30.0587 18.0041 30.1059 17.9488C30.153 17.8935 30.1852 17.827 30.1994 17.7558C30.2136 17.6845 30.2092 17.6108 30.1869 17.5417C30.1645 17.4725 30.1247 17.4103 30.0715 17.3609L28.9873 16.3473C29.0001 16.2324 29.0113 16.1172 29.0212 16.0016L30.2834 15.22C30.3451 15.1817 30.396 15.1283 30.4312 15.0648C30.4665 15.0014 30.485 14.9299 30.485 14.8573C30.485 14.7847 30.4665 14.7133 30.4312 14.6498C30.396 14.5864 30.3451 14.5329 30.2834 14.4946L29.0212 13.713C29.0113 13.5978 29.0001 13.4827 28.9873 13.3677L30.0715 12.3541C30.1244 12.3045 30.1638 12.2422 30.186 12.1731C30.2082 12.104 30.2124 12.0304 30.1982 11.9593C30.1841 11.8881 30.152 11.8218 30.1051 11.7664C30.0582 11.7111 29.998 11.6686 29.9301 11.643L28.5409 11.1225C28.5087 11.0118 28.4751 10.9014 28.4403 10.7915L29.3078 9.5845C29.3501 9.52551 29.3767 9.4567 29.385 9.38457C29.3933 9.31244 29.3831 9.23938 29.3553 9.17231C29.3275 9.10524 29.283 9.04637 29.2261 9.00127C29.1692 8.95618 29.1018 8.92635 29.0301 8.91461L27.5595 8.67461C27.5066 8.57347 27.4525 8.47293 27.3974 8.37301L28.0159 7.01567C28.0411 6.96014 28.0545 6.8995 28.0545 6.83854C28.0545 6.60461 27.862 6.41248 27.6284 6.41248L27.6128 6.4128L26.1179 6.46546C26.0483 6.37833 25.9775 6.29248 25.9057 6.20727L26.2488 4.75003C26.265 4.67937 26.263 4.60574 26.243 4.53606C26.2229 4.46638 26.1855 4.40293 26.1343 4.35167C26.083 4.3004 26.0196 4.263 25.9499 4.24297C25.8802 4.22294 25.8066 4.22094 25.7359 4.23716L24.279 4.58057C24.1937 4.50864 24.1076 4.43779 24.0205 4.36801L24.0735 2.87312L24.0738 2.85844C24.0738 2.62418 23.881 2.43174 23.6471 2.43174C23.5862 2.43174 23.5258 2.44482 23.4703 2.47003L22.113 3.08854C22.0132 3.03331 21.9128 2.97927 21.8117 2.92642L21.5717 1.45578C21.56 1.38413 21.5301 1.31666 21.4851 1.25975C21.44 1.20285 21.3811 1.15839 21.314 1.13059C21.2469 1.10279 21.1739 1.09256 21.1018 1.10088C21.0296 1.1092 20.9608 1.13578 20.9018 1.17812L19.6948 2.04588C19.5847 2.01078 19.4746 1.97727 19.3636 1.94503L18.843 0.556097C18.8177 0.488011 18.7754 0.427531 18.7201 0.380412C18.6649 0.333292 18.5984 0.3011 18.5272 0.286898C18.456 0.272696 18.3823 0.276955 18.3132 0.299272C18.244 0.321588 18.1818 0.361219 18.1323 0.414395L17.1187 1.49854C17.0038 1.4861 16.8886 1.47461 16.7731 1.46503L15.9915 0.20248C15.9533 0.140651 15.8999 0.0896149 15.8364 0.0542195C15.7729 0.0188241 15.7015 0.000244141 15.6288 0.000244141C15.5561 0.000244141 15.4846 0.0188241 15.4211 0.0542195C15.3577 0.0896149 15.3043 0.140651 15.2661 0.20248L14.4845 1.46471ZM13.1635 15.8612H15.9758C16.2315 15.8612 17.3491 15.9349 17.7046 17.3625C17.8154 17.8004 18.0627 19.2276 18.2306 19.6856C18.3981 20.1975 19.0779 21.221 19.803 21.221H24.392C24.0844 21.6328 23.7481 22.0224 23.3857 22.3868L21.5175 21.986C21.3083 21.9422 21.0904 21.9828 20.911 22.0989C20.7316 22.2149 20.6052 22.3971 20.5594 22.6058L20.1158 24.6758C18.6892 25.3212 17.1402 25.6514 15.5745 25.644C14.0087 25.6367 12.463 25.2918 11.0425 24.633L10.5989 22.563C10.5539 22.3544 10.4281 22.1721 10.249 22.0559C10.07 21.9398 9.85224 21.8993 9.64339 21.9432L7.81533 22.3355C7.47595 21.9856 7.16055 21.6133 6.8713 21.221H15.7623C15.8619 21.221 15.9302 21.2038 15.9302 21.1099V17.9654C15.9302 17.8744 15.8619 17.8543 15.7623 17.8543H13.1607L13.1635 15.8612ZM22.1545 23.1033C22.3839 23.1119 22.6011 23.2087 22.761 23.3734C22.9209 23.5381 23.0112 23.7581 23.013 23.9877C23.013 24.4728 22.614 24.8721 22.1289 24.8721C21.8951 24.8699 21.6714 24.776 21.506 24.6106C21.3406 24.4453 21.2468 24.2216 21.2446 23.9877C21.2467 23.7538 21.3405 23.5297 21.5059 23.3643C21.6713 23.1989 21.895 23.1051 22.1289 23.103L22.1545 23.1033ZM9.06063 23.0634C9.29006 23.0721 9.50735 23.1688 9.6673 23.3335C9.82725 23.4982 9.91756 23.7182 9.91945 23.9478C9.9172 24.1817 9.82331 24.4053 9.65795 24.5707C9.49258 24.736 9.26895 24.8299 9.0351 24.8322C8.80123 24.83 8.57755 24.7361 8.41216 24.5707C8.24678 24.4054 8.15292 24.1817 8.15075 23.9478C8.15284 23.7139 8.24668 23.4898 8.41207 23.3244C8.57747 23.159 8.8012 23.0652 9.0351 23.0631L9.06063 23.0634ZM77.9533 8.69344H74.0364V9.52482C74.0364 10.3195 73.6116 10.8735 72.6322 10.8735V13.9035H73.4454V17.2476C73.4454 20.3883 74.8863 21.4045 77.3804 21.4045C79.1724 21.4045 80.5581 20.8505 80.5581 20.8505V17.9497C80.5581 17.9497 79.7083 18.116 79.0247 18.116C78.3225 18.116 77.9533 17.7649 77.9533 16.9335V13.9035H80.4474V10.8735H77.9533V8.69344ZM63.3394 20.8319C63.3394 20.8319 64.9836 21.4045 67.7917 21.4045C70.988 21.4045 72.4477 20.0558 72.4477 17.8572C72.4477 15.7141 71.1172 14.6794 68.2721 14.3839C67.1266 14.2731 66.8681 14.1439 66.8681 13.848C66.8681 13.5525 67.2929 13.4047 68.2906 13.4047C69.8055 13.4047 71.8008 13.6635 71.8008 13.6635V11.1691C71.8008 11.1691 70.3414 10.615 67.5147 10.615C64.1522 10.615 62.8035 12.0745 62.8035 13.9961C62.8035 16.0651 64.3555 17.1554 66.9237 17.5064C68.0876 17.6727 68.3461 17.7834 68.3461 18.116C68.3461 18.4115 68.1058 18.5963 67.0159 18.5963C65.6487 18.5963 63.3394 18.2638 63.3394 18.2638V20.8319ZM55.3027 10.8735H50.2404V13.9035H51.0533V16.9335C51.0533 20.0188 52.3097 21.4045 54.3235 21.4045C55.9863 21.4045 56.8547 20.4809 57.4457 19.8895V21.146H62.508V18.116H61.6951V10.8735H56.4481V13.9035H57.4457V16.9335C57.4457 17.7649 57.0762 18.116 56.3744 18.116C55.6723 18.116 55.3027 17.7649 55.3027 16.9335V10.8735ZM42.3885 15.086C43.922 15.086 44.5501 15.3263 44.5501 16.8043V21.146H50.4067V18.116H49.5386V16.6932C49.5386 15.4 48.9472 14.6979 47.7648 14.5131L47.7463 14.3286C49.0028 13.848 49.6679 12.5548 49.6679 10.9291C49.6679 7.88056 47.8018 6.77216 44.7719 6.77216H36.1071V9.80216H37.2155V18.116H36.1071V21.146H43.608V18.116H42.3885V15.086ZM17.6335 4.06642C19.1856 4.3579 20.6557 4.98341 21.9421 5.89959C23.2284 6.81577 24.3001 8.0007 25.0829 9.37227L24.0397 11.7266C23.955 11.9226 23.9505 12.144 24.027 12.3433C24.1035 12.5425 24.255 12.704 24.4491 12.7929L26.4565 13.683C26.5188 14.3105 26.5264 14.9421 26.4792 15.5711H25.3619C25.2508 15.5711 25.2055 15.6451 25.2055 15.753V16.2649C25.2055 17.4704 24.5257 17.7349 23.9286 17.8004C23.3599 17.8658 22.7315 17.5613 22.652 17.2147C22.3166 15.3295 21.7591 14.9283 20.8776 14.2319C21.9726 13.5381 23.1097 12.5114 23.1097 11.141C23.1097 9.6595 22.0948 8.72695 21.4038 8.26929C20.4314 7.62939 19.3565 7.50142 19.0664 7.50142H7.52236C9.11867 5.71815 11.2583 4.51085 13.61 4.06642L14.9721 5.49397C15.045 5.57058 15.1322 5.63203 15.2289 5.6748C15.3255 5.71757 15.4297 5.74081 15.5354 5.74318C15.6411 5.74555 15.7462 5.72701 15.8446 5.68862C15.9431 5.65024 16.0331 5.59276 16.1092 5.5195L17.6335 4.06642ZM6.73184 10.7941H8.27299V17.7435H5.16229C4.77808 16.3944 4.65833 14.9838 4.80963 13.5892L6.71492 12.7418C6.91005 12.6549 7.06273 12.4941 7.13949 12.2948C7.21624 12.0954 7.21081 11.8738 7.12439 11.6784L6.73184 10.7941ZM13.1635 10.8681H16.8343C17.0249 10.8681 18.1738 11.0871 18.1738 11.9484C18.1738 12.6624 17.2923 12.918 16.5672 12.918H13.1607L13.1635 10.8681ZM42.3885 12.8318V9.80216H43.3862C44.0883 9.80216 44.4578 10.1532 44.4578 10.9846V11.6497C44.4578 12.4811 44.0883 12.8318 43.3862 12.8318H42.3885ZM26.1492 10.6521C26.3786 10.6605 26.596 10.7571 26.7559 10.9218C26.9159 11.0865 27.0062 11.3065 27.008 11.5361C27.0058 11.7699 26.9119 11.9936 26.7465 12.159C26.5811 12.3243 26.3575 12.4182 26.1237 12.4205C25.8898 12.4183 25.6661 12.3244 25.5007 12.159C25.3353 11.9937 25.2415 11.77 25.2393 11.5361C25.2416 11.3016 25.3361 11.077 25.5023 10.9116C25.6686 10.7462 25.8933 10.6528 26.1278 10.6517L26.1492 10.6521ZM5.06559 10.6122C5.29502 10.6208 5.5123 10.7175 5.67225 10.8822C5.8322 11.0469 5.92251 11.2669 5.9244 11.4965C5.92216 11.7304 5.82827 11.954 5.6629 12.1194C5.49754 12.2847 5.2739 12.3786 5.04006 12.3809C4.80618 12.3787 4.5825 12.2849 4.41712 12.1195C4.25174 11.9541 4.15787 11.7304 4.15571 11.4965C4.15779 11.2626 4.25163 11.0386 4.41703 10.8732C4.58243 10.7078 4.80616 10.6139 5.04006 10.6118L5.06559 10.6122ZM15.6088 2.61078C15.8384 2.619 16.0559 2.7156 16.2159 2.88039C16.376 3.04518 16.4661 3.26543 16.4676 3.49514C16.4676 3.98025 16.0684 4.37918 15.5833 4.37918C15.3495 4.37702 15.1258 4.2832 14.9605 4.11788C14.7951 3.95257 14.7012 3.72896 14.6989 3.49514V3.4945C14.6989 3.0094 15.0982 2.61046 15.5833 2.61046L15.6088 2.61078Z" fill="black"/>
</svg>
