<svg width="81" height="17" viewBox="0 0 81 17" fill="none" xmlns="http://www.w3.org/2000/svg">
<path d="M41.5962 11.4851L39.7901 9.23941L34.2787 16.0841H37.8956L41.5962 11.4851ZM37.8956 0.0165856H34.289L47.2062 16.0719H50.8231L44.3637 8.04976L50.813 0.0288209L47.2062 0.0344679L42.5583 5.80741L37.8956 0.0165856ZM53.8076 0.00976206H67.701V2.57423H62.1895V16.0653H59.4336V2.57423H53.8076V0.00976206ZM13.7007 16.0653L3.53893 3.43494V16.0585H0.783203V0.00317383H4.22786L17.0658 15.9453V2.57423H17.0648V0.00976206H30.958V2.57423H19.8215V6.69964H28.7776V9.26388H19.8215V13.5008H30.958V16.0653H13.7007ZM79.2695 11.0434C79.2396 10.7582 79.1088 10.5356 78.8811 10.3773C78.6514 10.2173 78.3547 10.1382 77.9905 10.1382C77.7347 10.1382 77.5145 10.1768 77.3314 10.2524C77.1484 10.3295 77.0065 10.4326 76.9093 10.5632C76.8133 10.6926 76.761 10.8491 76.7599 11.0102C76.7599 11.1502 76.7936 11.2716 76.859 11.3728C76.9244 11.4759 77.0119 11.5622 77.126 11.6323C77.2432 11.7062 77.3684 11.766 77.4994 11.8107C77.6376 11.8585 77.7759 11.8989 77.9138 11.9321L78.5505 12.0886C78.8065 12.1474 79.0549 12.2265 79.2919 12.3276C79.529 12.4272 79.7439 12.554 79.9323 12.7067C80.1191 12.8569 80.2719 13.0451 80.3806 13.2587C80.4907 13.474 80.5467 13.726 80.5467 14.0168C80.5467 14.4088 80.446 14.7528 80.2422 15.0509C80.0387 15.3472 79.7455 15.5789 79.361 15.7465C78.9782 15.9119 78.5152 15.9966 77.97 15.9966C77.4434 15.9966 76.9841 15.9156 76.5976 15.7538C76.2093 15.5938 75.9065 15.3582 75.6882 15.0491C75.4698 14.7399 75.3522 14.3627 75.3352 13.9192H76.5453C76.562 14.1512 76.6369 14.3444 76.7637 14.5008C76.8926 14.6552 77.0606 14.7693 77.266 14.8467C77.4733 14.922 77.7048 14.9608 77.9606 14.9608C78.2277 14.9608 78.4629 14.9201 78.6665 14.8411C78.8681 14.762 79.0267 14.6516 79.1406 14.5081C79.2566 14.3665 79.3145 14.1989 79.3161 14.0076C79.3145 13.8328 79.262 13.6874 79.161 13.5733C79.0585 13.4594 78.9166 13.3636 78.7354 13.2865C78.5282 13.2008 78.3147 13.1312 78.0968 13.0785L77.3239 12.8834C76.7656 12.7418 76.323 12.5265 75.9999 12.2375C75.6752 11.9488 75.5145 11.566 75.5145 11.0858C75.5145 10.6921 75.6228 10.3462 75.8413 10.05C76.0578 9.75376 76.3547 9.52364 76.7303 9.35988C77.1074 9.19423 77.5331 9.11329 78.0072 9.11329C78.4891 9.11329 78.9109 9.19423 79.2752 9.35988C79.6392 9.52364 79.925 9.75188 80.1321 10.0425C80.3394 10.3333 80.4476 10.6662 80.4533 11.0434H79.2695ZM73.0237 9.20341H74.2449V13.9083C74.2432 14.3406 74.1496 14.7105 73.9668 15.0215C73.7821 15.3323 73.5261 15.5698 73.1976 15.7371C72.8708 15.9027 72.488 15.9874 72.0529 15.9874C71.6551 15.9874 71.2986 15.9156 70.9812 15.7759C70.6638 15.6359 70.4115 15.4262 70.2268 15.1502C70.04 14.8742 69.9485 14.5302 69.9485 14.118H71.1715C71.1734 14.2982 71.2146 14.4547 71.2929 14.5853C71.3713 14.7159 71.4795 14.8154 71.6179 14.8853C71.7576 14.9552 71.9183 14.9902 72.0995 14.9902C72.2955 14.9902 72.4637 14.9498 72.6 14.8669C72.7362 14.786 72.8409 14.6644 72.9136 14.5025C72.9844 14.3425 73.0221 14.1439 73.0237 13.9083V9.20341ZM68.3203 15.9672C68.2244 15.9687 68.1292 15.9509 68.0404 15.9149C67.9516 15.8789 67.8709 15.8253 67.8031 15.7575C67.7336 15.6924 67.6787 15.6133 67.642 15.5254C67.6053 15.4375 67.5877 15.3428 67.5902 15.2476C67.5883 15.0528 67.6593 14.8853 67.8031 14.7455C67.8708 14.6776 67.9515 14.624 68.0404 14.588C68.1292 14.5519 68.2244 14.5341 68.3203 14.5356C68.5146 14.5356 68.6845 14.6055 68.828 14.7455C68.9739 14.8853 69.0466 15.0528 69.0485 15.2476C69.0483 15.3757 69.0127 15.5011 68.9457 15.6102C68.8801 15.718 68.7882 15.8073 68.6786 15.8698C68.5704 15.934 68.4509 15.9672 68.3203 15.9672Z" fill="black"/>
</svg>
