<svg width="129" height="28" viewBox="0 0 129 28" fill="none" xmlns="http://www.w3.org/2000/svg">
<path d="M24.0176 19.3519L23.6985 19.2946C21.4327 18.8732 20.0006 17.5021 19.3219 15.347C18.8988 14.0035 19.6677 13.0141 21.0767 12.9488C22.2305 12.8955 23.0203 13.5586 23.7185 14.3301C24.619 15.3252 25.4439 16.3875 26.3284 17.3972C27.6013 18.851 29.1014 19.787 31.1539 19.4981C32.9939 19.239 34.5975 18.5003 35.9931 17.2848C36.2029 17.1021 36.4331 16.943 36.654 16.7728L36.5149 16.6088C35.3433 16.9723 34.1486 17.0946 32.9277 17.0332C31.0805 16.9403 29.3205 16.555 27.7458 15.5408C26.3088 14.6155 25.2488 13.3755 24.7452 11.719C24.3381 10.3808 25.171 9.44479 26.5577 9.63812C27.1062 9.71457 27.5675 9.96168 27.9818 10.3119C28.3191 10.5968 28.6422 10.8986 28.9862 11.1746C30.605 12.475 32.8664 12.5475 34.9206 11.1355C31.5432 11.1203 29.2454 9.26257 27.2271 6.90834C26.4373 5.98657 25.6661 5.04879 24.8599 4.14168C23.3003 2.38701 21.5696 0.840789 19.1997 0.313233C16.173 -0.360544 13.2506 0.0799001 10.4457 1.36479C9.88653 1.62079 9.34918 1.91857 8.77272 2.39812C9.05806 2.39812 9.21407 2.40168 9.36918 2.39768C10.7834 2.36123 11.8435 2.98968 12.6075 4.14657C13.164 4.98834 13.4262 5.94034 13.6258 6.9199C13.9222 8.37368 13.7689 9.8559 13.94 11.3159C14.3805 15.0701 16.2992 17.6901 19.8717 19.0315C21.182 19.5235 22.526 19.6875 24.0176 19.3519ZM14.9885 2.22657C14.424 2.36879 13.9729 2.14079 13.5075 1.67057C14.304 1.4719 15.0062 1.39501 15.7605 1.36568C15.6992 1.85546 15.4098 2.12034 14.9885 2.22657ZM33.4877 24.1492C33.4388 23.7879 33.1299 23.6288 32.8872 23.4399C31.813 22.6039 30.5574 22.3079 29.2258 22.2835C28.4311 22.2688 27.6449 22.2097 26.8951 21.931C26.5519 21.8035 26.1675 21.6395 26.1764 21.1955C26.1848 20.7452 26.5768 20.6177 26.9333 20.511C27.2253 20.4239 27.5266 20.3683 27.8591 20.2906C27.0146 19.7497 26.1902 19.6746 25.091 20.1163C23.3612 20.8119 21.6558 20.7297 19.9313 20.107C18.9575 19.7555 18.0935 19.2039 17.1939 18.715L17.169 18.7323L17.1925 18.7159C17.1703 18.6483 17.1299 18.6466 17.0783 18.6843L17.149 18.7461C17.8948 19.9688 18.9028 20.9528 20.0415 21.7932C22.2345 23.4123 24.6297 24.3781 27.432 23.9497C28.338 23.8108 29.2487 23.7042 30.1623 23.6301C31.3068 23.5377 32.3975 23.8599 33.4877 24.1492ZM28.204 6.60834C28.1435 6.56434 28.0853 6.45412 27.9618 6.5679C28.9698 7.9319 30.2649 8.93723 31.825 9.57012C34.342 10.5915 36.8967 10.7661 39.5097 9.86479C41.5382 9.16523 42.9969 9.84879 43.7543 11.8181C43.864 9.53234 42.5191 7.86657 40.3768 7.5399C39.1714 7.35634 38.059 7.75634 36.93 8.08346C33.7882 8.99457 30.869 8.54479 28.204 6.60834ZM43.8618 15.5243C44.2712 15.559 44.6801 15.5959 45.0894 15.6319C44.1645 14.8195 43.0373 14.755 41.8973 14.8199C40.1608 14.9186 38.9097 15.9199 37.7692 17.1163C36.7643 18.171 35.8562 19.3537 34.3566 19.7777C34.3815 19.8226 34.3882 19.8452 34.3953 19.8452C34.5971 19.8479 34.7989 19.8577 35.0002 19.8483C37.1785 19.7497 39.2301 19.2906 40.8626 17.7097C41.3764 17.2119 41.8364 16.659 42.3329 16.1426C42.7467 15.7115 43.2485 15.4728 43.8618 15.5243ZM38.8021 12.8252C37.1763 12.9675 35.7647 13.6395 34.4384 14.5261C33.4175 15.2083 32.3259 15.5315 31.0992 15.3181C30.8832 15.2803 30.6658 15.2523 30.4494 15.2199L30.4418 15.3106C30.5196 15.3506 30.5952 15.3977 30.6765 15.4297C30.881 15.5106 31.0823 15.6079 31.2943 15.6586C33.6548 16.2195 35.9145 15.9319 37.9523 14.6159C39.2363 13.7866 40.5657 13.6292 42.0066 13.8439C42.152 13.8652 42.2969 13.8919 42.4431 13.9057C42.5787 13.9186 42.72 14.0528 42.9031 13.9075C41.6435 12.9972 40.2866 12.6955 38.8021 12.8252ZM32.9926 7.3079C33.8451 7.33723 34.694 7.22568 35.586 6.6959C35.3247 6.71901 35.214 6.71857 35.1078 6.7399C33.8788 6.98479 32.7761 6.71679 31.7939 5.9399C31.4334 5.65501 31.0667 5.37723 30.7018 5.09812C29.2547 3.99146 27.5951 3.62123 25.7799 3.65234C25.8092 3.74168 25.811 3.80301 25.8426 3.83457C27.8173 5.83234 30.1036 7.20834 32.9926 7.3079ZM47.2873 17.5577C46.065 16.3457 44.4245 16.1892 42.9067 17.2475C43.9111 17.2923 44.6654 17.6128 45.277 18.2461C45.4934 18.4706 45.7179 18.6901 45.9601 18.8857C46.885 19.6315 48.4526 19.6675 49.3686 18.9755C48.2926 18.5555 48.2926 18.5555 47.2873 17.5577ZM35.1135 26.8417C34.0393 24.8421 32.2339 24.391 30.1485 24.5252C30.765 24.6959 31.3405 24.959 31.869 25.3279C32.3543 25.6666 32.7628 26.0861 33.1655 26.5159C33.9633 27.3675 35.2087 27.8901 36.0336 27.7132C35.6549 27.4746 35.3184 27.2226 35.1135 26.8417ZM45.109 15.6728L45.1103 15.6341L45.1072 15.6377L45.1107 15.6337L45.0894 15.6319C45.0938 15.6355 45.0983 15.6386 45.1023 15.6426L45.109 15.6728ZM33.5473 24.1963L33.505 24.1723C33.5062 24.1813 33.5093 24.1899 33.5139 24.1977C33.5166 24.2026 33.5357 24.1972 33.5473 24.1963ZM33.505 24.1723L33.501 24.1528L33.4877 24.1492L33.4913 24.1648L33.505 24.1723Z" fill="#FD4F00"/>
<path d="M93.8723 15.4735V13.4993C93.8723 11.4477 93.1949 9.58952 90.0593 9.58952C86.9236 9.58952 86.0138 11.3313 86.0138 13.3637V15.5704C86.0138 17.8931 87.1752 19.4029 90.2335 19.4029C91.5495 19.4029 92.9238 19.1126 93.7758 18.8029L93.3691 16.7122C92.5367 16.9637 91.3753 17.1189 90.5046 17.1189C89.2268 17.1189 88.801 16.8286 88.801 15.7446V15.4735H93.8723ZM80.2069 19.4029C83.5555 19.4029 84.4653 17.5251 84.4653 15.5895V13.4024C84.4653 11.4669 83.5555 9.58952 80.2069 9.58952C76.8584 9.58952 75.9486 11.4669 75.9486 13.4024V15.5895C75.9486 17.5251 76.8584 19.4029 80.2069 19.4029ZM63.9864 11.6606V9.97663C63.9864 7.55708 62.8251 6.31841 59.689 6.31841H54.4244V19.2091H57.3276V15.2993H59.5343C62.67 15.2993 63.9864 14.0797 63.9864 11.6606ZM109.396 19.2091V9.78286H106.609V19.2091H109.396ZM104.189 19.2091V12.6091C104.189 10.7895 103.628 9.58952 102.021 9.58952C100.937 9.58952 99.4275 9.93797 98.2662 10.4993L97.9759 9.78286H95.9048V19.2091H98.692V12.9766C99.292 12.6477 100.221 12.2993 100.724 12.2993C101.208 12.2993 101.402 12.5509 101.402 12.9766V19.2091H104.189ZM119.81 9.78286H117.061L115.416 12.3571L113.771 9.78286H111.022L113.945 14.4669L110.945 19.2091H113.752L115.416 16.5962L117.081 19.2091H119.887L116.887 14.4669L119.81 9.78286ZM74.013 19.2091V12.6091C74.013 10.7895 73.4516 9.58952 71.8449 9.58952C70.7609 9.58952 69.6191 9.93797 68.4768 10.4606V5.54419L65.7283 5.9313V19.2091H68.5155V12.9962C69.1155 12.6864 70.0449 12.2993 70.548 12.2993C71.032 12.2993 71.2253 12.5509 71.2253 12.9766V19.2091H74.013ZM80.2069 17.0606C79.2002 17.0606 78.7358 16.5575 78.7358 15.6673V13.3251C78.7358 12.4349 79.2002 11.9313 80.2069 11.9313C81.2132 11.9313 81.6781 12.4349 81.6781 13.3251V15.6673C81.6781 16.5575 81.2132 17.0606 80.2069 17.0606ZM91.2402 13.3833H88.801V12.9766C88.801 12.3184 89.1108 11.7766 90.0784 11.7766C91.0464 11.7766 91.2402 12.3184 91.2402 12.9766V13.3833ZM61.0828 11.37C61.0828 12.2993 60.8117 12.7833 59.5343 12.7833H57.3276V8.89263H59.5343C60.7539 8.89263 61.0828 9.31841 61.0828 10.2477V11.37ZM109.396 8.60241V5.64108H106.609V8.60241H109.396Z" fill="#443635"/>
</svg>
