<svg width="28" height="32" viewBox="0 0 28 32" fill="none" xmlns="http://www.w3.org/2000/svg">
<path d="M25.6238 4.22859C22.6524 -0.0285563 16.7666 -1.2857 12.5381 1.42859L5.08093 6.17144C3.05236 7.45716 1.65236 9.54287 1.22379 11.8857C0.880929 13.8572 1.16664 15.8857 2.1095 17.6572C1.48093 18.6286 1.02379 19.7143 0.823786 20.8572C0.395214 23.2857 0.966643 25.7714 2.36664 27.7714C5.33807 32.0286 11.1952 33.2857 15.4524 30.5714L22.9095 25.8286C24.9381 24.5429 26.3381 22.4572 26.7666 20.1143C27.1095 18.1429 26.8238 16.1143 25.8809 14.3429C26.5095 13.3714 26.9666 12.2857 27.1666 11.1429C27.5952 8.7143 27.0238 6.22859 25.6238 4.22859ZM23.4809 10.3429L23.3095 11.0286L23.1666 11.4572L22.7952 11.1714C21.9095 10.5143 20.9381 10.0286 19.8809 9.7143L19.5952 9.62859L19.6238 9.34287C19.6524 8.94287 19.5381 8.57144 19.3095 8.22859C18.8809 7.60001 18.1095 7.34287 17.3952 7.5143C17.2238 7.57144 17.0809 7.62859 16.9381 7.7143L9.48093 12.4857C9.1095 12.7143 8.85236 13.0857 8.79521 13.5143C8.7095 13.9429 8.82379 14.4 9.08093 14.7714C9.5095 15.4 10.2809 15.6572 10.9952 15.4857C11.1666 15.4286 11.3095 15.3714 11.4524 15.2857L14.3095 13.4857C14.7666 13.2 15.2809 12.9714 15.8238 12.8286C18.2238 12.2 20.7666 13.1429 22.1666 15.1714C23.0238 16.3714 23.3666 17.8572 23.1095 19.3143C22.8524 20.7429 22.0238 22 20.7952 22.7714L13.3095 27.5143C12.8524 27.8 12.3381 28.0286 11.7952 28.1714C9.39522 28.8 6.85236 27.8572 5.45236 25.8286C4.59522 24.6286 4.25236 23.1429 4.5095 21.6857L4.68093 21L4.82379 20.5714L5.19521 20.8572C6.08093 21.5143 7.05236 22 8.1095 22.3143L8.39522 22.4L8.36664 22.6857C8.33807 23.0857 8.45236 23.4857 8.68093 23.8C9.1095 24.4286 9.88093 24.6857 10.5952 24.5143C10.7666 24.4572 10.9095 24.4 11.0524 24.3143L18.5095 19.5714C18.8809 19.3429 19.1381 18.9714 19.2238 18.5429C19.3095 18.1143 19.1952 17.6572 18.9381 17.2857C18.5095 16.6572 17.7381 16.4 17.0238 16.5714C16.8524 16.6286 16.7095 16.6857 16.5666 16.7714L13.7095 18.5714C13.2524 18.8572 12.7381 19.0857 12.1952 19.2286C9.79521 19.8286 7.25236 18.8857 5.82379 16.8286C4.96664 15.6286 4.62379 14.1429 4.88093 12.6857C5.13807 11.2572 5.96664 10 7.19521 9.22859L14.6809 4.48573C15.1381 4.20002 15.6524 3.97144 16.1952 3.82859C18.5952 3.20002 21.1381 4.14287 22.5381 6.17144C23.3952 7.40002 23.7381 8.88573 23.4809 10.3429Z" fill="black"/>
</svg>
