<svg width="130" height="32" viewBox="0 0 130 32" fill="none" xmlns="http://www.w3.org/2000/svg">
<path d="M76.6238 4.22859C73.6524 -0.0285563 67.7666 -1.2857 63.5381 1.42859L56.0809 6.17144C54.0524 7.45716 52.6524 9.54287 52.2238 11.8857C51.8809 13.8572 52.1666 15.8857 53.1095 17.6572C52.4809 18.6286 52.0238 19.7143 51.8238 20.8572C51.3952 23.2857 51.9666 25.7714 53.3666 27.7714C56.3381 32.0286 62.1952 33.2857 66.4524 30.5714L73.9095 25.8286C75.9381 24.5429 77.3381 22.4572 77.7666 20.1143C78.1095 18.1429 77.8238 16.1143 76.8809 14.3429C77.5095 13.3714 77.9666 12.2857 78.1666 11.1429C78.5952 8.7143 78.0238 6.22859 76.6238 4.22859ZM74.4809 10.3429L74.3095 11.0286L74.1666 11.4572L73.7952 11.1714C72.9095 10.5143 71.9381 10.0286 70.8809 9.7143L70.5952 9.62859L70.6238 9.34287C70.6524 8.94287 70.5381 8.57144 70.3095 8.22859C69.8809 7.60001 69.1095 7.34287 68.3952 7.5143C68.2238 7.57144 68.0809 7.62859 67.9381 7.7143L60.4809 12.4857C60.1095 12.7143 59.8524 13.0857 59.7952 13.5143C59.7095 13.9429 59.8238 14.4 60.0809 14.7714C60.5095 15.4 61.2809 15.6572 61.9952 15.4857C62.1666 15.4286 62.3095 15.3714 62.4524 15.2857L65.3095 13.4857C65.7666 13.2 66.2809 12.9714 66.8238 12.8286C69.2238 12.2 71.7666 13.1429 73.1666 15.1714C74.0238 16.3714 74.3666 17.8572 74.1095 19.3143C73.8524 20.7429 73.0238 22 71.7952 22.7714L64.3095 27.5143C63.8524 27.8 63.3381 28.0286 62.7952 28.1714C60.3952 28.8 57.8524 27.8572 56.4524 25.8286C55.5952 24.6286 55.2524 23.1429 55.5095 21.6857L55.6809 21L55.8238 20.5714L56.1952 20.8572C57.0809 21.5143 58.0524 22 59.1095 22.3143L59.3952 22.4L59.3666 22.6857C59.3381 23.0857 59.4524 23.4857 59.6809 23.8C60.1095 24.4286 60.8809 24.6857 61.5952 24.5143C61.7666 24.4572 61.9095 24.4 62.0524 24.3143L69.5095 19.5714C69.8809 19.3429 70.1381 18.9714 70.2238 18.5429C70.3095 18.1143 70.1952 17.6572 69.9381 17.2857C69.5095 16.6572 68.7381 16.4 68.0238 16.5714C67.8524 16.6286 67.7095 16.6857 67.5666 16.7714L64.7095 18.5714C64.2524 18.8572 63.7381 19.0857 63.1952 19.2286C60.7952 19.8286 58.2524 18.8857 56.8238 16.8286C55.9666 15.6286 55.6238 14.1429 55.8809 12.6857C56.1381 11.2572 56.9666 10 58.1952 9.22859L65.6809 4.48573C66.1381 4.20002 66.6524 3.97144 67.1952 3.82859C69.5952 3.20002 72.1381 4.14287 73.5381 6.17144C74.3952 7.40002 74.7381 8.88573 74.4809 10.3429Z" fill="black"/>
</svg>
